<svg width="167" height="152" xmlns="http://www.w3.org/2000/svg">
<rect width="167" height="152" fill="white"></rect>
<g clip-path="url(#clip0_2324_2832)">
<path d="M150.607 56.1367C151.936 55.4137 153.102 54.4314 154.034 53.2496C154.966 52.0677 155.645 50.7109 156.03 49.2616C157.243 45.0505 155.088 41.8224 152.733 38.6874C152.197 38.0298 151.578 37.4433 150.89 36.9424C150.071 36.3026 150.213 35.7326 150.89 35.1219C151.043 34.9765 151.249 34.8834 151.39 34.7322C153.28 32.772 153.292 32.7546 155.212 34.6449C158.397 37.7974 160.57 41.5142 160.97 45.9928C161.138 47.8926 160.9 49.806 160.272 51.6093C159.644 53.4127 158.64 55.0659 157.326 56.4624C154.382 59.708 150.96 62.2788 146.391 62.8605C145.751 62.9258 145.153 63.2048 144.695 63.6515C141.985 66.2111 138.85 68.2926 135.427 69.8053C135.109 69.9297 134.832 70.1413 134.631 70.4154C134.43 70.6894 134.312 71.0145 134.291 71.3525C132.625 83.7357 127.078 94.1703 117.845 102.697C116.846 103.56 116.185 104.741 115.979 106.036C114.866 112.672 113.388 119.251 112.522 125.928C112.325 126.924 111.745 127.806 110.903 128.388C107.288 131.407 100.116 131.878 96.0471 129.406C95.6491 129.199 95.3033 128.905 95.0352 128.548C94.7672 128.19 94.5838 127.778 94.4985 127.341C93.8332 124.096 93.0971 120.862 92.3847 117.622C92.2257 116.895 92.1491 116.156 90.995 116.418C89.841 116.68 90.2531 117.413 90.3591 118.018C90.9205 121.232 91.5093 124.443 92.1256 127.65C92.4848 129.575 91.9195 130.296 89.9587 129.976C88.1159 129.663 86.2978 129.222 84.518 128.656C83.9303 128.462 83.408 128.112 83.0082 127.644C82.6084 127.176 82.3464 126.609 82.2511 126.004C81.6981 123.427 80.9361 120.898 79.9723 118.442C79.8816 118.089 79.6618 117.781 79.3553 117.578C79.0488 117.375 78.6772 117.292 78.3119 117.343C76.3923 117.413 74.461 117.407 72.5355 117.343C72.3564 117.307 72.1714 117.309 71.9932 117.35C71.8151 117.391 71.6479 117.469 71.5032 117.579C71.3584 117.69 71.2395 117.83 71.1545 117.99C71.0694 118.15 71.0203 118.326 71.0105 118.506C70.3333 121.374 69.5325 124.218 68.8377 127.086C68.7713 127.501 68.608 127.895 68.3607 128.237C68.1134 128.58 67.7889 128.86 67.4128 129.057C63.0025 131.291 58.5805 131.18 54.182 129.057C53.6928 128.793 53.2762 128.415 52.9684 127.956C52.6606 127.497 52.4708 126.97 52.4156 126.422C51.5147 121.56 50.496 116.715 49.5539 111.881C49.3301 110.718 48.4763 110.439 47.3694 110.078C47.5354 112.397 47.9118 114.696 48.494 116.947C49.0828 119.774 49.0828 122.688 49.8836 125.486C50.1015 126.248 49.7305 126.737 48.9238 127.033C45.2437 128.371 39.3673 126.068 38.0012 122.496C37.3359 120.751 37.1946 118.815 36.8236 116.965C36.0581 113.359 35.2514 109.758 34.5154 106.146C34.3258 105.217 33.8135 104.381 33.0669 103.785C29.0677 100.368 25.4798 96.5074 22.3739 92.28C21.892 91.642 21.2927 91.0994 20.6075 90.6805C17.9637 88.9821 15.3081 87.336 12.6996 85.5562C9.96751 83.6659 8.73099 80.7751 7.86542 77.7505C6.88209 74.3421 6.68778 70.8871 8.06562 67.5136C8.86052 65.5709 10.1618 64.1808 12.4052 63.7097C15.0667 63.128 17.7046 62.3544 20.3249 61.6972C20.6877 61.6276 21.0252 61.4638 21.3026 61.2225C21.5799 60.9812 21.7872 60.6712 21.9029 60.3245C25.0236 52.4898 30.8117 47.063 38.2132 43.1893C38.6986 43.0091 39.1057 42.6684 39.3655 42.2252C39.6253 41.7819 39.7217 41.2635 39.6382 40.758C39.3967 36.0758 39.279 31.3877 39.0964 26.7055C39.014 24.6581 39.4968 24.059 41.5224 24.1114C49.3184 24.3208 55.8307 26.944 60.0113 33.8248C60.071 33.9687 60.1593 34.0992 60.271 34.2088C60.3827 34.3183 60.5154 34.4047 60.6614 34.4627C60.8074 34.5207 60.9637 34.5492 61.1211 34.5466C61.2785 34.5439 61.4337 34.5101 61.5776 34.4472C66.0986 33.3265 70.7731 32.9336 75.4208 33.2839C76.4806 33.3479 76.6455 32.7604 76.987 32.1206C80.4728 25.4259 86.1432 22.0698 93.6742 22.0116C102.624 21.9418 110.697 28.8343 112.157 37.5241C112.316 38.4605 112.528 38.9491 113.6 39.1876C114.954 39.4842 116.073 40.4148 117.162 41.2699C123.781 46.4407 128.609 52.8678 131.223 60.8363C131.871 62.8197 132.566 63.3316 134.686 63.2967C135.165 63.2885 135.641 63.212 136.099 63.0699C137.141 62.7209 138.666 62.7441 139.013 61.767C139.261 61.069 137.724 60.6037 137.082 59.929C134.603 57.3058 132.96 54.3685 133.608 50.6692C134.403 46.0161 139.426 42.3517 143.583 43.2823C148.617 44.4049 152.091 49.884 150.819 54.6593C150.625 55.0781 150.266 55.4969 150.607 56.1367ZM146.403 52.8504C146.424 51.5516 145.944 50.2937 145.061 49.3314C143.488 47.5458 142.028 47.2608 140.35 48.3485C138.383 49.6106 137.677 51.1462 138.16 53.1296C138.748 55.5376 140.921 57.8118 142.835 58.0445C143.016 58.0855 143.205 58.0798 143.383 58.0279C143.562 57.9759 143.724 57.8795 143.853 57.7478C145.151 56.3835 146.034 54.6865 146.403 52.8504ZM44.6608 70.7534C44.6608 72.9462 46.0033 74.4584 47.9111 74.4642C49.8189 74.4701 51.6148 72.6146 51.6089 70.4975C51.6112 70.0512 51.524 69.609 51.3524 69.1962C51.1808 68.7834 50.9281 68.4083 50.609 68.0925C50.2898 67.7766 49.9105 67.5264 49.4929 67.3562C49.0754 67.186 48.6278 67.0991 48.1761 67.1007C47.6994 67.1025 47.228 67.1996 46.7903 67.3861C46.3527 67.5726 45.9577 67.8447 45.6293 68.186C45.3009 68.5273 45.0458 68.9306 44.8793 69.3719C44.7129 69.8131 44.6385 70.283 44.6608 70.7534Z" fill="#3475DE"></path>
<path d="M74.3548 39.8216C74.2804 38.0847 74.5054 36.348 75.0201 34.6857C75.2027 34.104 75.4029 33.4293 76.1566 33.6445C76.9102 33.8597 76.6924 34.5054 76.504 35.0812C75.8731 37.2087 75.673 39.4382 75.9151 41.6421C75.9024 41.8465 75.9317 42.0512 76.0014 42.244C76.0712 42.4368 76.1798 42.6136 76.3207 42.7637C76.4617 42.9138 76.632 43.0341 76.8214 43.1172C77.0108 43.2004 77.2153 43.2447 77.4225 43.2475C84.8475 44.4864 92.2608 45.7718 99.674 47.0456C102.094 47.4586 104.52 47.8424 106.928 48.3136C107.138 48.3869 107.361 48.4185 107.583 48.4063C107.805 48.3942 108.023 48.3387 108.223 48.2429C108.424 48.1472 108.603 48.0132 108.751 47.8486C108.898 47.684 109.011 47.4921 109.083 47.2841C110.202 45.0331 111.021 42.7298 110.95 40.188C110.95 39.6064 110.95 39.0247 111.662 39.0247C112.375 39.0247 112.44 39.6413 112.457 40.188C112.521 42.779 111.877 45.339 110.591 47.5981C110.073 48.552 110.067 48.9301 111.297 49.0755C112.027 49.1628 113.423 48.9883 113.217 50.1516C113.011 51.3149 111.751 50.6634 111.026 50.5413C99.8742 48.6606 88.7259 46.7509 77.5815 44.8121C75.5501 44.4631 73.5186 44.0967 71.4813 43.7477C70.8925 43.6488 70.3802 43.451 70.5569 42.7589C70.6982 42.1772 71.1987 42.2121 71.7345 42.247C72.6119 42.2994 73.7483 43.0555 74.2664 42.4332C74.7022 41.8864 74.3548 40.7115 74.3548 39.8216Z" fill="#101010"></path>
<path d="M93.8335 28.433C87.0385 28.3981 82.269 32.2195 81.1032 38.3209C80.9913 38.9026 81.0502 39.8099 80.1434 39.6645C79.1424 39.5016 79.4957 38.5827 79.5546 37.9603C80.3907 31.9403 85.9021 27.1359 92.3143 26.8393C93.3292 26.8073 94.3451 26.854 95.3526 26.9789C95.8708 27.037 96.5303 27.1999 96.3772 27.9269C96.2712 28.5086 95.7295 28.5086 95.1995 28.5086C94.6696 28.5086 94.0749 28.4446 93.8335 28.433Z" fill="#101010"></path>
<path d="M90.5072 42.0085C90.3685 42.0104 90.2324 41.9717 90.116 41.8971C89.9997 41.8226 89.9083 41.7156 89.8536 41.5897C89.7921 41.4149 89.7822 41.2264 89.8249 41.0462C89.8676 40.866 89.9613 40.7015 90.095 40.5718L93.1686 36.7214C94.0637 35.6104 94.9351 34.482 95.8713 33.3944C96.1834 33.0279 96.6132 32.7022 97.1196 33.1094C97.626 33.5165 97.3552 33.9469 97.0431 34.3366C95.151 36.6865 93.2589 39.0363 91.3669 41.3861C91.2726 41.5411 91.148 41.6759 91.0004 41.7828C90.8528 41.8896 90.6851 41.9664 90.5072 42.0085Z" fill="#101010"></path>
<path d="M94.593 42.183C93.7568 41.9794 93.7568 41.4269 94.0807 40.9616C95.3349 39.1469 96.6421 37.367 97.9433 35.5872C97.9932 35.508 98.0584 35.4394 98.1353 35.3854C98.2122 35.3314 98.2991 35.293 98.3912 35.2724C98.4832 35.2519 98.5785 35.2495 98.6714 35.2656C98.7643 35.2817 98.8531 35.3159 98.9326 35.3662C99.0168 35.4101 99.0903 35.4718 99.1479 35.5467C99.2055 35.6217 99.2458 35.7082 99.266 35.8002C99.2862 35.8922 99.2858 35.9874 99.2648 36.0792C99.2438 36.171 99.2028 36.2572 99.1445 36.3317C97.8197 38.222 96.4595 40.0833 95.0935 41.9446C94.9875 42.0842 94.7284 42.119 94.593 42.183Z" fill="#101010"></path>
</g>
<defs>

<rect width="154" height="109" fill="white" transform="translate(7 22)"></rect>

</defs>
</svg>
