<svg width="1387" height="1117" xmlns="http://www.w3.org/2000/svg">
<rect width="1387" height="1117" fill="white"></rect>
<path d="M814.308 241.541C814.279 239.982 813.421 238.968 812.015 238.304C811.442 235.714 809.403 234.312 807.271 232.982C804.973 230.054 802.232 227.555 799.089 225.463C794.77 220.413 789.296 216.995 782.872 214.884C782.332 214.054 781.49 213.86 780.546 213.858C775.437 211.422 769.929 210.105 764.46 208.667C763.91 207.847 763.068 207.662 762.135 207.67C754.951 205.323 747.847 202.745 740.337 201.435C739.766 200.636 738.924 200.461 737.992 200.499C733.993 198.573 729.429 200.098 725.355 198.624C724.12 197.087 722.463 197.608 720.873 197.787C710.853 196.854 701.004 198.917 691.075 199.442C686.497 199.627 681.797 198.385 677.381 200.517C674.12 200.508 670.735 200.031 668.261 202.827C666.637 202.908 665.509 203.699 664.779 205.062C656.629 208.224 649.764 213.453 642.606 218.106C632.589 224.614 622.959 231.664 613.286 238.644C606.675 243.418 599.582 247.63 593.701 253.31C591.48 254.542 590.753 256.596 590.334 258.824L590.344 258.823C588.134 260.065 587.449 262.148 586.966 264.347C586.105 264.843 585.9 265.647 585.822 266.518C583.718 267.828 582.99 269.871 582.539 272.07C581.166 273.236 580.555 274.757 580.292 276.442C575.828 281.626 573.489 287.78 571.468 294.078C569.978 296.846 569.888 299.898 569.566 302.894L569.533 306.165C569.569 309.795 569.742 313.432 569.589 317.065C569.488 319.527 570.618 321.646 571.08 323.948C571.345 325.233 572.29 325.856 573.525 325.733C577 325.398 580.293 326.607 583.701 326.633C593.957 326.722 604.25 327.141 614.448 326.931C660.635 325.961 706.89 326.91 753.006 322.68C765.053 321.576 777.213 320.329 789.402 320.623C790.921 320.564 792.451 320.516 793.97 320.457C796.388 320.812 798.432 319.134 800.816 319.31L803.099 319.187C807.527 317.675 812.397 318.544 816.78 316.832C817.713 316.835 818.569 316.669 819.131 315.858L822.472 315.646C823.761 315.622 825.095 315.767 825.985 314.561C831.804 314.562 837.329 312.849 842.994 311.944C844.522 311.775 845.827 311.481 844.19 309.741C844.156 309.032 844.122 308.312 844.088 307.603C844.023 306.404 844.22 305.13 842.998 304.283C842.992 303.943 842.954 303.614 842.885 303.275C842.731 301.748 843.266 300.058 841.734 298.856C841.727 298.516 841.689 298.177 841.631 297.838C841.466 296.321 842.001 294.621 840.427 293.45C837.051 279.942 831.272 267.408 823.775 255.556C823.439 253.883 822.782 252.375 821.398 251.23C820.412 248.388 819.394 245.547 816.665 243.698C816.473 242.381 815.776 241.574 814.298 241.542L814.308 241.541ZM759.215 127.987C759.656 126.338 759.067 125.129 757.379 124.531C754.001 123.333 750.664 122.015 747.217 121.059C744.193 120.226 743.013 121.078 742.385 123.95C741.795 126.601 741.363 129.279 740.678 131.902C737.906 142.415 735.145 152.927 732.195 163.403C731.468 166.007 731.757 167.472 734.749 168.216C737.677 168.942 740.457 170.16 743.346 171.026C746.941 172.099 748.076 171.658 748.561 168.439C749.513 162.131 752.024 156.233 753.545 150.084C755.368 142.7 757.318 135.353 759.215 127.987ZM897.309 229.445C897.22 229.156 897.161 228.797 897.019 228.47C895.304 224.802 892.792 221.628 890.32 218.414C889.525 217.379 888.432 217.219 887.284 217.52C885.824 217.908 884.342 218.315 882.991 218.95C872.41 223.898 862.242 229.628 851.421 234.11C848.893 235.157 847.946 236.685 849.295 239.27C850.382 241.37 851.168 243.605 852.121 245.778C853.972 250.024 854.215 250.119 858.862 248.552C859.758 248.256 860.676 247.989 861.517 247.593C872.763 242.313 883.455 235.973 895.277 231.803C896.329 231.433 897.41 230.903 897.33 229.454L897.309 229.445ZM812.154 193.417C813.479 193.102 814.299 192.077 815.205 191.18C820.754 185.696 826.378 180.281 831.778 174.67C834.37 171.971 837.647 170.08 840.24 167.422C843.193 164.386 843.17 163.187 839.836 160.939C837.362 159.274 834.725 157.823 832.19 156.261C829.92 154.853 828.091 155.177 826.177 157.093C818.726 164.602 811.221 172.062 803.589 179.415C801.323 181.598 801.55 183.634 803.348 185.6C805.585 188.049 808.121 190.242 810.564 192.517C810.948 192.879 811.507 193.059 812.143 193.417L812.154 193.417ZM585.907 210.291C585.805 209.323 585.205 208.614 584.491 208.018C583.064 206.834 581.586 205.711 580.149 204.538C573.25 198.946 565.982 193.721 560.937 186.334C559.191 183.776 558.276 183.593 556.156 185.773C553.574 188.411 551.205 191.256 548.899 194.109C547.341 196.038 548.305 197.7 549.701 199.465C556.51 208.119 565.817 214.136 574.353 220.978C575.949 222.258 577.469 222.23 578.759 220.585C580.797 217.977 582.782 215.33 584.799 212.712C585.362 211.982 585.957 211.271 585.917 210.291L585.907 210.291ZM511.785 260.606C510.05 260.899 509.617 261.867 509.281 262.953C508.47 265.558 507.584 268.135 506.794 270.74C505.589 274.733 505.633 274.802 509.316 276.654C512.999 278.505 516.692 280.347 520.386 282.198C524.408 284.223 528.369 286.35 532.461 288.244C536.427 290.08 537.148 289.917 539.433 286.524C540.882 284.377 542.416 282.328 544.323 280.562C546.158 278.858 546.105 277.729 543.671 276.524C533.935 271.675 524.27 266.674 514.574 261.754C513.59 261.253 512.514 260.903 511.785 260.606ZM884.206 293.775C890.479 293.928 896.563 291.834 902.884 292.317C904.574 292.445 906.301 292.293 908.008 292.201C912.407 291.959 912.984 291.369 911.836 287.19C911.296 285.22 911.187 283.281 911.056 281.294C910.775 276.918 910.738 276.629 905.965 277.068C899.936 277.62 893.937 278.632 887.862 278.385C884.578 278.256 881.492 279.194 878.323 279.643C876.117 279.954 875.456 281.076 875.597 282.984C875.655 283.883 875.63 284.794 875.647 285.703C875.914 294.949 874.794 293.92 884.206 293.775ZM651.457 139.964C649.749 139.996 648.031 140.078 646.322 140.05C643.794 139.997 642.642 141.179 643.438 143.424C646.283 151.472 648.678 159.638 650.98 167.836C651.564 169.905 652.955 170.819 655.292 169.636C657.982 168.265 660.87 167.412 663.835 166.716C666.945 165.978 668.182 164.805 666.781 161.121C665.182 156.89 664.031 152.491 662.744 148.145C661.103 142.582 657.337 139.858 651.447 139.975L651.457 139.964ZM495.533 323.645C495.533 323.645 495.628 323.643 495.68 323.642C495.707 325.092 495.536 326.575 495.803 327.99C496.642 332.495 497.371 332.791 502.299 331.68C510.401 329.848 518.582 328.336 526.895 327.701C529.701 327.489 531.138 326.412 530.95 323.645C530.878 322.557 530.931 321.465 530.868 320.377C530.613 316.251 529.449 315.082 525.175 315.882C521.414 316.592 517.688 316.952 513.884 317.002C508.936 317.075 503.992 317.297 499.043 317.289C496.327 317.289 495.215 318.39 495.472 320.916C495.562 321.814 495.516 322.725 495.533 323.635L495.533 323.645ZM600.415 349.204C600.026 348.011 598.95 348.231 598.101 348.247C589.358 348.34 580.822 346.549 572.169 345.8C570.856 345.684 569.525 345.159 568.521 346.408C567.814 347.291 567.931 352.459 568.68 353.275C569.761 354.455 571.061 353.871 572.368 353.687C580.776 352.5 589.124 350.945 597.615 350.316C598.631 350.238 599.938 350.633 600.425 349.204L600.415 349.204ZM883.902 346.665C892.245 348.79 900.105 351.434 908.194 352.834C909.166 351.535 908.914 350.42 908.894 349.35C908.791 343.822 908.349 343.17 902.614 343.687C896.773 344.215 890.948 345.014 885.072 345.313C884.841 345.318 884.63 345.802 883.901 346.655L883.902 346.665ZM457.125 347.082C457.149 348.412 457.425 349.697 458.788 350.271C460.056 350.808 460.802 349.734 461.67 349.058C463.902 347.306 465.113 344.803 466.888 342.71C468.078 341.308 471.149 340.1 469.686 338.127C468.353 336.332 465.896 338.398 463.953 338.824C462.878 339.064 461.829 339.604 460.918 340.211C458.453 341.867 457.175 344.181 457.124 347.072L457.125 347.082ZM946.472 359.551C945.173 359.576 944.627 360.096 944.767 360.883C945.175 363.086 946.393 364.853 948.335 366.107C949.131 366.623 950.099 366.815 950.892 366.06C951.644 365.346 951.77 364.193 951.193 363.604C949.686 362.072 947.921 360.775 946.473 359.561L946.472 359.551Z" fill="white"></path>
<path d="M844.087 307.603C844.121 308.312 844.156 309.032 844.19 309.741C843.245 310.209 843.008 311.013 842.994 311.944C837.328 312.839 831.803 314.562 825.984 314.561C824.506 314.018 822.751 312.661 822.471 315.646C821.361 315.717 820.241 315.788 819.12 315.859C817.356 314.041 817.013 315.328 816.769 316.833C812.387 318.544 807.505 317.675 803.088 319.188C802.992 318.529 802.882 317.701 802.126 317.615C800.896 317.468 800.948 318.527 800.794 319.31C798.411 319.125 796.366 320.813 793.948 320.458C793.773 318.951 792.861 318.348 791.311 318.487C789.93 318.602 789.495 319.481 789.38 320.623C777.192 320.33 765.032 321.576 752.985 322.681C706.868 326.91 660.614 325.961 614.426 326.931C604.239 327.141 593.936 326.723 583.68 326.634C580.272 326.607 576.968 325.399 573.504 325.733C572.269 325.856 571.314 325.234 571.059 323.948C570.597 321.657 569.467 319.528 569.568 317.066C569.721 313.442 569.548 309.805 569.512 306.166C570.662 305.994 571.726 305.704 571.552 304.277C571.416 303.16 570.46 303.038 569.535 302.895C569.856 299.899 569.946 296.847 571.436 294.079C572.421 294.03 573.329 293.813 573.804 292.874C576.271 287.988 578.749 283.111 581.164 278.206C581.527 277.469 580.971 276.85 580.271 276.443C580.533 274.757 581.144 273.236 582.517 272.07C586.267 270.73 586.999 269.497 585.8 266.519C585.868 265.647 586.084 264.843 586.945 264.347C590.881 264.064 590.401 261.332 590.323 258.824L590.312 258.824C594.228 258.531 593.705 255.78 593.68 253.311C599.55 247.631 606.643 243.418 613.264 238.645C622.927 231.664 632.567 224.614 642.585 218.107C649.753 213.453 656.607 208.225 664.758 205.063C666.468 205.101 668.177 205.129 668.229 202.828C670.703 200.022 674.099 200.508 677.349 200.518C678.319 202.48 680.118 202.816 682.095 202.59C684.815 202.269 687.803 203.383 690.198 201.379C690.694 200.969 690.772 200.108 691.043 199.453C700.983 198.928 710.821 196.854 720.841 197.798C723.237 201.463 723.689 201.555 725.333 198.634C729.408 200.108 733.972 198.583 737.971 200.509C738.259 201.934 738.599 203.258 740.316 201.445C747.826 202.756 754.93 205.334 762.114 207.68C762.371 209.105 762.689 210.42 764.439 208.677C769.907 210.115 775.415 211.433 780.525 213.868C780.782 215.283 781.069 216.628 782.85 214.895C789.275 217.005 794.759 220.433 799.068 225.474C800.028 230.276 802.182 232.256 807.25 232.992C809.371 234.323 811.421 235.725 811.993 238.314C810.712 240.458 811.078 240.971 814.287 241.542C814.263 243.072 815.093 243.757 816.654 243.698C819.383 245.547 820.39 248.379 821.387 251.23C820.22 253.852 820.524 254.417 823.764 255.557C831.261 267.408 837.04 279.952 840.416 293.45C838.243 295.561 839.639 296.765 841.62 297.838C841.679 298.177 841.706 298.517 841.723 298.856C839.466 300.958 840.872 302.182 842.874 303.275C842.933 303.604 842.971 303.943 842.988 304.283C840.987 306.101 841.521 307.161 844.087 307.603Z" fill="#FFF069"></path>
<path d="M759.214 127.987C757.318 135.353 755.357 142.7 753.545 150.084C752.024 156.233 749.512 162.131 748.561 168.439C748.075 171.658 746.94 172.089 743.345 171.026C740.457 170.17 737.666 168.942 734.748 168.216C731.757 167.472 731.467 166.007 732.195 163.403C735.135 152.938 737.906 142.415 740.677 131.902C741.373 129.279 741.805 126.601 742.385 123.95C743.023 121.078 744.192 120.226 747.217 121.06C750.663 122.016 754.011 123.333 757.378 124.531C759.067 125.129 759.645 126.339 759.214 127.987Z" fill="#FFF069"></path>
<path d="M897.309 229.445C897.399 230.893 896.308 231.424 895.256 231.793C883.444 235.964 872.742 242.304 861.496 247.584C860.654 247.979 859.736 248.246 858.84 248.543C854.193 250.11 853.95 250.004 852.099 245.768C851.157 243.596 850.361 241.36 849.273 239.26C847.935 236.675 848.872 235.147 851.4 234.1C862.22 229.618 872.388 223.888 882.97 218.941C884.321 218.306 885.802 217.898 887.263 217.511C888.41 217.21 889.504 217.369 890.299 218.404C892.77 221.619 895.283 224.792 896.997 228.461C897.15 228.788 897.209 229.147 897.288 229.435L897.309 229.445Z" fill="#FFF069"></path>
<path d="M812.164 193.417C811.528 193.068 810.969 192.879 810.585 192.516C808.142 190.241 805.605 188.038 803.369 185.6C801.571 183.633 801.334 181.607 803.61 179.415C811.232 172.062 818.736 164.602 826.197 157.092C828.101 155.176 829.93 154.852 832.211 156.26C834.756 157.833 837.394 159.274 839.857 160.938C843.18 163.176 843.203 164.376 840.261 167.421C837.679 170.079 834.39 171.971 831.798 174.669C826.399 180.28 820.764 185.696 815.226 191.179C814.32 192.076 813.5 193.102 812.174 193.416L812.164 193.417Z" fill="#FFF069"></path>
<path d="M585.907 210.292C585.956 211.271 585.361 211.982 584.788 212.713C582.771 215.33 580.786 217.978 578.749 220.586C577.458 222.23 575.938 222.248 574.342 220.978C565.806 214.146 556.499 208.119 549.69 199.465C548.305 197.7 547.331 196.048 548.888 194.109C551.204 191.246 553.563 188.412 556.146 185.773C558.265 183.604 559.18 183.777 560.927 186.334C565.96 193.721 573.24 198.946 580.138 204.538C581.575 205.702 583.064 206.834 584.48 208.018C585.194 208.615 585.794 209.324 585.896 210.292L585.907 210.292Z" fill="#FFF069"></path>
<path d="M511.784 260.607C512.513 260.903 513.579 261.253 514.574 261.755C524.28 266.675 533.934 271.665 543.671 276.524C546.105 277.739 546.157 278.858 544.323 280.563C542.416 282.338 540.881 284.377 539.433 286.524C537.137 289.917 536.427 290.081 532.461 288.244C528.378 286.35 524.407 284.214 520.385 282.199C516.702 280.347 513.009 278.506 509.315 276.654C505.632 274.803 505.589 274.743 506.794 270.741C507.584 268.136 508.469 265.549 509.28 262.954C509.617 261.867 510.06 260.909 511.784 260.607Z" fill="#FFF069"></path>
<path d="M884.206 293.785C874.783 293.93 875.914 294.959 875.647 285.714C875.63 284.804 875.645 283.893 875.597 282.994C875.467 281.086 876.117 279.964 878.323 279.653C881.502 279.204 884.578 278.267 887.862 278.395C893.948 278.642 899.936 277.631 905.965 277.078C910.738 276.639 910.775 276.929 911.056 281.304C911.176 283.282 911.296 285.23 911.836 287.2C912.984 291.379 912.418 291.969 908.008 292.212C906.301 292.303 904.574 292.466 902.884 292.327C896.573 291.844 890.489 293.938 884.206 293.785Z" fill="#FFF069"></path>
<path d="M651.447 139.974C657.358 139.858 661.124 142.581 662.744 148.145C664.02 152.492 665.171 156.88 666.781 161.121C668.181 164.805 666.945 165.978 663.834 166.716C660.859 167.422 657.981 168.275 655.291 169.636C652.954 170.829 651.564 169.905 650.98 167.836C648.678 159.638 646.282 151.472 643.438 143.424C642.641 141.179 643.793 139.997 646.321 140.05C648.031 140.088 649.738 139.996 651.457 139.964L651.447 139.974Z" fill="#FFF069"></path>
<path d="M495.533 323.655C495.516 322.745 495.562 321.834 495.472 320.936C495.215 318.41 496.327 317.31 499.043 317.309C503.991 317.307 508.936 317.095 513.884 317.023C517.689 316.972 521.414 316.602 525.176 315.902C529.449 315.103 530.613 316.271 530.868 320.397C530.931 321.486 530.878 322.577 530.95 323.665C531.128 326.432 529.69 327.509 526.895 327.721C518.582 328.356 510.411 329.868 502.299 331.7C497.381 332.811 496.642 332.515 495.803 328.01C495.546 326.605 495.707 325.122 495.68 323.662C495.628 323.663 495.586 323.664 495.533 323.665L495.533 323.655Z" fill="#FFF069"></path>
<path d="M600.404 349.214C599.917 350.644 598.61 350.248 597.594 350.327C589.103 350.955 580.755 352.521 572.347 353.697C571.04 353.882 569.74 354.466 568.659 353.286C567.921 352.47 567.803 347.291 568.5 346.418C569.504 345.159 570.835 345.695 572.148 345.81C580.801 346.559 589.338 348.36 598.08 348.258C598.929 348.242 600.015 348.032 600.394 349.215L600.404 349.214Z" fill="#FFF069"></path>
<path d="M883.891 346.676C884.619 345.822 884.831 345.338 885.061 345.334C890.937 345.034 896.752 344.236 902.603 343.707C908.339 343.19 908.77 343.842 908.884 349.371C908.904 350.44 909.155 351.556 908.183 352.854C900.095 351.455 892.234 348.811 883.891 346.686L883.891 346.676Z" fill="#FFF069"></path>
<path d="M580.292 276.442C580.991 276.849 581.548 277.469 581.185 278.206C578.77 283.111 576.292 287.998 573.825 292.874C573.349 293.803 572.441 294.02 571.457 294.078C573.479 287.79 575.817 281.626 580.281 276.442L580.292 276.442Z" fill="#FFF069"></path>
<path d="M691.064 199.453C690.793 200.108 690.715 200.969 690.219 201.378C687.825 203.393 684.837 202.279 682.116 202.589C680.139 202.816 678.34 202.48 677.37 200.518C681.787 198.385 686.486 199.628 691.064 199.443L691.064 199.453Z" fill="#FFF069"></path>
<path d="M807.281 232.982C802.214 232.246 800.059 230.266 799.099 225.463C802.242 227.555 804.983 230.054 807.281 232.982Z" fill="#FFF069"></path>
<path d="M585.821 266.518C587.02 269.496 586.288 270.73 582.538 272.07C582.99 269.871 583.728 267.827 585.821 266.518Z" fill="#FFF069"></path>
<path d="M725.354 198.624C723.71 201.545 723.268 201.453 720.862 197.787C722.452 197.608 724.109 197.087 725.354 198.624Z" fill="#FFF069"></path>
<path d="M593.69 253.311C593.715 255.781 594.238 258.531 590.323 258.824C590.742 256.596 591.469 254.532 593.69 253.311Z" fill="#FFF069"></path>
<path d="M590.343 258.823C590.422 261.332 590.892 264.064 586.965 264.347C587.449 262.148 588.133 260.065 590.343 258.823Z" fill="#FFF069"></path>
<path d="M823.785 255.557C820.545 254.417 820.241 253.852 821.408 251.23C822.792 252.375 823.45 253.883 823.785 255.557Z" fill="#FFF069"></path>
<path d="M789.401 320.612C789.516 319.47 789.961 318.592 791.332 318.476C792.871 318.337 793.794 318.94 793.969 320.447C792.45 320.506 790.92 320.554 789.401 320.612Z" fill="#FFF069"></path>
<path d="M814.307 241.541C811.099 240.971 810.733 240.458 812.014 238.314C813.421 238.978 814.279 239.992 814.307 241.541Z" fill="#FFF069"></path>
<path d="M841.63 297.838C839.66 296.774 838.254 295.56 840.427 293.45C841.99 294.621 841.466 296.311 841.63 297.838Z" fill="#FFF069"></path>
<path d="M842.885 303.275C840.883 302.192 839.477 300.968 841.733 298.856C843.265 300.058 842.731 301.748 842.885 303.275Z" fill="#FFF069"></path>
<path d="M569.566 302.894C570.481 303.027 571.448 303.159 571.584 304.277C571.757 305.704 570.693 305.994 569.543 306.165C569.554 305.075 569.566 303.985 569.577 302.894L569.566 302.894Z" fill="#FFF069"></path>
<path d="M844.087 307.603C841.531 307.161 840.998 306.101 842.988 304.283C844.209 305.131 844.023 306.404 844.087 307.603Z" fill="#FFF069"></path>
<path d="M668.239 202.828C668.177 205.129 666.478 205.101 664.768 205.063C665.487 203.699 666.616 202.908 668.239 202.828Z" fill="#FFF069"></path>
<path d="M822.482 315.636C822.762 312.65 824.517 313.998 825.995 314.55C825.116 315.757 823.771 315.612 822.482 315.636Z" fill="#FFF069"></path>
<path d="M740.337 201.435C738.62 203.247 738.28 201.923 737.992 200.498C738.924 200.461 739.777 200.635 740.337 201.435Z" fill="#FFF069"></path>
<path d="M764.46 208.667C762.71 210.409 762.392 209.105 762.135 207.67C763.078 207.652 763.92 207.837 764.46 208.667Z" fill="#FFF069"></path>
<path d="M782.871 214.884C781.09 216.618 780.802 215.273 780.545 213.857C781.489 213.85 782.331 214.044 782.871 214.884Z" fill="#FFF069"></path>
<path d="M816.676 243.698C815.104 243.757 814.284 243.072 814.308 241.541C815.787 241.574 816.494 242.381 816.676 243.698Z" fill="#FFF069"></path>
<path d="M842.994 311.934C843.008 311.013 843.244 310.199 844.19 309.731C845.826 311.471 844.532 311.755 842.994 311.934Z" fill="#FFF069"></path>
<path d="M816.779 316.823C817.024 315.318 817.367 314.031 819.13 315.849C818.569 316.659 817.712 316.825 816.779 316.823Z" fill="#FFF069"></path>
<path d="M800.815 319.31C800.969 318.527 800.907 317.478 802.147 317.615C802.903 317.701 803.003 318.529 803.109 319.187C802.345 319.231 801.59 319.265 800.826 319.31L800.815 319.31Z" fill="#FFF069"></path>
<path d="M516.841 628.649C516.841 619.74 516.831 610.841 516.841 601.932C516.861 592.692 515.79 583.503 515.5 574.264C515.2 564.545 514.249 554.805 513.379 545.096C512.388 534.167 511.468 523.218 509.507 512.339C507.235 499.75 504.954 487.141 502.933 474.512C501.652 466.512 501.632 458.303 500.342 450.304C499.421 444.574 499.851 438.775 498.571 433.085C497.62 428.876 497.86 424.446 497.51 420.146C497.06 414.577 496.329 409.007 495.999 403.408C495.589 396.398 494.518 389.419 493.588 382.449C492.747 376.2 491.407 370.01 490.806 363.751C489.876 353.912 500.051 341.403 509.957 340.543C513.989 340.193 518.171 341.423 522.274 341.963C523.164 342.082 524.055 342.502 524.925 342.452C534.01 341.993 542.975 343.752 552.07 343.752C562.376 343.752 572.741 344.302 583.017 344.982C590.261 345.472 597.495 345.452 604.719 345.782C625.03 346.732 645.361 347.222 665.693 346.812C678.35 346.562 691.006 346.072 703.623 344.792C708.646 344.282 713.749 344.012 718.762 343.832C725.295 343.592 731.799 342.952 738.232 342.292C748.648 341.223 759.104 340.743 769.51 339.543C775.213 338.883 781.006 338.303 786.799 338.063C792.732 337.813 798.656 337.003 804.559 336.253C809.221 335.663 813.934 335.553 818.597 335.103C830.283 333.993 841.849 332.043 853.496 330.683C868.754 328.894 883.752 325.694 898.861 323.104C907.015 321.704 916.04 326.164 919.132 334.983C922.274 343.952 922.434 353.012 920.523 362.251C914.299 392.288 908.396 422.396 901.902 452.374C899.071 465.433 896.339 478.502 893.828 491.61C891.827 502.04 890.186 512.569 888.945 523.148C887.895 532.087 886.024 540.936 884.923 549.876C884.153 556.145 883.172 562.405 882.642 568.674C881.992 576.454 880.151 583.993 878.87 591.642C876.949 603.201 874.697 614.701 872.716 626.26C870.765 637.629 869.054 649.048 867.103 660.427C865.032 672.516 862.841 684.575 860.63 696.634C858.939 705.853 856.758 715.012 855.497 724.292C854.106 734.471 852.035 744.59 851.895 754.919C851.885 755.989 851.675 757.089 851.355 758.109C848.383 767.428 845.421 776.747 842.35 786.037C841.119 789.746 841.029 789.646 837.447 788.727C824.85 785.477 812.353 781.677 799.596 779.207C786.499 776.668 773.432 773.948 760.185 772.068C751.45 770.828 742.675 769.688 733.95 768.288C729.368 767.558 724.675 766.898 719.942 766.738C714.189 766.548 708.466 765.588 702.723 764.948C702.183 764.888 701.642 764.679 701.112 764.719C693.288 765.328 685.604 763.169 677.789 763.559C664.172 764.239 650.624 761.669 637.007 762.519C624.19 763.319 611.343 763.419 598.526 764.408C591.872 764.918 585.208 765.698 578.495 765.848C573.472 765.958 568.469 767.048 563.436 767.468C556.773 768.028 550.209 769.398 543.575 769.978C540.324 770.258 537.232 771.398 533.91 771.278C531.559 771.198 529.688 770.658 528.137 768.868C524.035 764.129 521.343 759.179 520.973 752.419C520.263 739.37 520.823 726.282 519.862 713.303C519.272 705.323 519.662 697.354 518.932 689.435C517.051 669.196 516.601 648.938 516.831 628.639L516.841 628.649Z" fill="#E0F4FE"></path>
<path d="M1080.16 878.109C1066.38 867.81 1052.58 857.551 1038.03 848.352C1025.92 840.692 1013.56 833.473 1001 826.574C994.484 822.994 988.23 818.954 981.776 815.274C973.752 810.695 965.838 805.935 957.243 802.375C952.43 800.376 948.088 797.236 943.535 794.616C932.69 788.367 921.483 782.797 910.197 777.398C902.603 773.768 901.963 772.358 903.403 763.879C904.584 756.919 904.604 749.85 905.545 742.89C906.345 736.981 906.225 731.021 907.336 725.122C908.096 721.082 908.176 716.872 908.566 712.733C909.557 702.304 911.398 692.014 912.839 681.655C913.909 673.976 914.249 666.186 915.32 658.507C916.461 650.288 916.871 641.998 918.242 633.799C918.892 629.909 919.062 625.91 919.542 621.96C921.153 608.721 922.964 595.502 924.805 582.293C926.576 569.604 928.707 556.985 930.648 544.326C932.419 532.747 935.091 521.298 936.752 509.699C939.393 491.151 946.327 473.742 950.459 455.603C952.66 445.934 955.112 436.325 956.833 426.536C958.544 416.767 960.815 407.087 962.596 397.328C964.507 386.869 966.248 376.37 967.839 365.851C969.24 356.581 970.52 347.282 971.681 338.003C972.641 330.324 974.012 322.654 974.292 314.865C974.482 309.655 975.453 304.476 976.083 299.286C976.153 298.746 976.414 298.186 976.324 297.686C974.392 287.037 982.367 280.828 987.4 273.388C989.231 270.678 992.913 270.968 995.894 270.568C1004.3 269.428 1012.72 268.468 1021.14 267.449C1021.68 267.379 1022.22 267.289 1022.77 267.289C1035.84 267.329 1048.84 265.499 1061.93 266.129C1065.98 266.329 1069.76 267.619 1073.6 268.588C1097.57 274.658 1120.7 282.947 1142.84 294.146C1168.77 307.265 1194.08 321.364 1218.46 337.213C1244.14 353.922 1269.8 370.65 1295.27 387.689C1297.66 389.289 1299.31 391.159 1300.58 393.658C1303.05 398.508 1305.44 403.428 1308.39 407.987C1310.69 411.547 1310.9 415.047 1309.87 418.846C1307.65 427.046 1305.5 435.285 1303.05 443.424C1293.93 473.622 1283.29 503.29 1271.65 532.607C1263.89 552.146 1257.23 572.094 1250.23 591.912C1242.17 614.811 1234.33 637.789 1225.68 660.487C1221.24 672.156 1217.34 684.025 1212.46 695.534C1211.96 696.724 1211.79 698.024 1210.19 698.204C1210 697.054 1210.56 696.094 1210.91 695.064C1217.97 674.496 1224.94 653.897 1232.06 633.349C1237.88 616.57 1243.37 599.692 1249.2 582.913C1261.89 546.436 1274.14 509.809 1286.58 473.252C1291.96 457.463 1297.42 441.695 1302.75 425.886C1303.82 422.716 1305.32 419.626 1305.66 416.127C1303.58 415.907 1302.09 416.627 1300.65 417.266C1294.67 419.926 1288.48 421.986 1282.3 424.116C1277.85 425.656 1273.22 426.826 1268.94 428.756C1253.51 435.745 1237.15 438.655 1220.44 439.415C1209.91 439.895 1199.57 437.735 1189.44 434.735C1182.09 432.555 1175.14 429.466 1168.4 425.856C1167 425.106 1165.64 424.066 1163.83 424.466C1160.31 425.246 1155.47 430.995 1155.47 434.775C1155.47 439.885 1154.43 444.824 1153.62 449.814C1152.4 457.293 1151.11 464.783 1150.14 472.282C1149.17 479.801 1147.85 487.261 1146.92 494.79C1146.28 499.98 1145.08 505.109 1144.57 510.309C1143.7 519.128 1141.47 527.728 1140.65 536.557C1140.13 542.116 1138.49 547.576 1138.1 553.126C1137.42 562.705 1134.93 571.984 1134 581.533C1133.26 589.063 1131.23 596.452 1130.47 603.981C1129.53 613.341 1127.52 622.52 1126.61 631.889C1125.58 642.468 1123.09 652.888 1121.75 663.447C1120.64 672.236 1119.07 680.935 1117.65 689.665C1115.82 700.894 1113.64 712.063 1111.9 723.302C1110.02 735.441 1107.66 747.48 1105.3 759.519C1103.61 768.198 1101.5 776.808 1099.85 785.497C1097.3 798.986 1095.15 812.545 1092.52 826.014C1090 838.963 1087.25 851.881 1084.25 864.72C1083.2 869.24 1082.8 874.03 1080.22 878.119L1080.16 878.109Z" fill="#E0F4FE"></path>
<path d="M133.74 405.778C136.471 405.398 135.981 403.238 135.851 401.548C135.541 397.438 137.282 394.478 139.833 391.299C149.579 379.18 162.456 371.12 175.433 363.201C184.258 357.811 193.363 352.892 202.688 348.392C215.595 342.163 228.892 336.823 242.24 331.653C266.093 322.414 290.636 315.275 315.45 309.235C329.097 305.916 342.885 302.986 356.823 300.776C363.847 299.666 370.88 297.906 377.814 299.056C387.369 300.636 397.055 298.706 406.5 300.946C407.881 301.276 409.412 301.156 410.852 301.016C417.416 300.406 423.83 302.216 430.363 302.146C432.764 302.116 434.315 303.896 436.066 305.076C438.307 306.586 439.848 308.975 442.3 310.315C443.32 310.875 443.57 311.985 443.7 313.115C445.161 326.054 448.743 338.593 450.804 351.412C452.175 359.951 454.146 368.391 454.747 377.08C455.117 382.459 456.307 387.779 457.118 393.129C458.288 400.788 459.449 408.437 460.21 416.167C461 424.226 461.47 432.345 463.021 440.335C463.772 444.224 464.072 448.204 464.422 452.154C465.102 459.883 466.193 467.543 467.383 475.212C468.434 481.981 469.154 488.801 469.885 495.62C471.025 506.219 471.346 516.889 472.216 527.508C473.057 537.777 473.747 548.036 474.427 558.315C475.148 569.134 475.678 579.964 476.599 590.763C477.329 599.392 477.789 608.071 478.81 616.661C480.06 627.06 480.05 637.549 481.741 647.918C482.642 653.408 482.372 659.097 482.702 664.687C483.112 671.536 483.662 678.436 484.333 685.235C484.983 691.864 485.033 698.554 485.944 705.193C486.644 710.323 487.485 715.563 487.404 720.832C487.344 724.822 488.155 728.782 488.775 732.651C490.056 740.691 489.846 748.43 487.595 756.269C486.894 758.709 485.924 759.879 483.572 760.649C475.318 763.359 467.053 766.079 458.959 769.208C439.988 776.528 421.388 784.707 403.779 794.956C384.358 806.255 365.287 818.204 345.476 828.783C324.795 839.843 304.944 852.112 285.614 865.29C284.263 866.21 282.872 867.09 281.161 867.18C279.64 866.14 279.61 864.331 279.14 862.851C277.209 856.821 275.528 850.702 273.667 844.652C266.723 822.154 261.56 799.216 257.108 776.118C254.817 764.239 252.866 752.31 251.185 740.311C249.654 729.401 248.123 718.502 247.202 707.523C246.842 703.204 246.732 698.804 245.782 694.604C244.171 687.505 243.911 680.275 243.13 673.116C242.07 663.427 241.589 653.658 240.929 643.928C240.229 633.649 239.278 623.38 238.758 613.101C238.097 600.262 238.388 587.383 237.697 574.514C236.997 561.655 237.697 548.716 237.477 535.827C237.357 528.368 238.328 520.988 238.838 513.609C239.568 502.97 241.009 492.381 240.729 481.681C240.609 477.012 240.729 472.322 240.459 467.663C240.048 460.593 239.088 453.654 233.645 448.304C233.005 447.674 232.434 446.924 232.024 446.124C230.673 443.535 228.582 442.755 225.731 442.855C214.114 443.245 202.558 442.465 191.062 440.755C182.477 439.475 173.972 438.225 165.898 434.585C152.06 428.356 140.914 419.346 133.77 405.778H133.74Z" fill="#E0F4FE"></path>
<path d="M133.74 405.778C140.884 419.347 152.03 428.356 165.868 434.585C173.942 438.225 182.447 439.475 191.032 440.755C202.538 442.475 214.084 443.245 225.701 442.855C228.552 442.765 230.643 443.535 231.994 446.124C232.404 446.914 232.975 447.674 233.615 448.304C239.068 453.644 240.019 460.593 240.429 467.663C240.699 472.322 240.579 477.012 240.699 481.681C240.979 492.391 239.538 502.97 238.808 513.609C238.308 520.998 237.327 528.378 237.447 535.827C237.657 548.726 236.967 561.655 237.667 574.514C238.368 587.383 238.067 600.262 238.728 613.101C239.258 623.38 240.199 633.649 240.899 643.928C241.559 653.658 242.04 663.427 243.1 673.116C243.881 680.275 244.141 687.515 245.752 694.604C246.712 698.804 246.812 703.204 247.173 707.523C248.093 718.502 249.624 729.402 251.155 740.311C252.836 752.3 254.787 764.239 257.078 776.118C261.53 799.216 266.693 822.154 273.637 844.652C275.508 850.702 277.189 856.821 279.11 862.851C279.59 864.341 279.62 866.141 281.131 867.18C281.581 873.05 284.613 878.19 285.734 883.899C287.475 892.768 289.626 901.558 291.667 910.357C292.197 912.647 291.757 914.507 290.386 916.466C286.424 922.136 282.042 927.446 277.249 932.395C272.837 936.955 266.643 937.705 260.87 939.085C254.096 940.704 247.253 940.445 240.359 939.205C226.721 936.755 216.175 930.115 209.162 917.916C197.265 897.208 187.79 875.43 180.796 852.662C168.719 813.335 157.503 773.778 149.809 733.291C146.427 715.503 143.606 697.654 141.244 679.716C139.593 667.167 137.402 654.678 136.171 642.089C135.011 630.2 133.42 618.36 132.349 606.461C131.179 593.503 130.498 580.484 128.597 567.565C127.677 561.315 128.067 554.876 127.857 548.516C127.857 543.077 129.118 537.587 127.217 532.217C129.058 505.46 127.116 478.642 128.427 451.904C129.138 437.475 128.477 422.976 130.368 408.607C130.508 407.547 130.668 406.448 131.069 405.468C132.159 402.828 132.82 405.548 133.69 405.738L133.74 405.778Z" fill="#A0D4EF"></path>
<path d="M1080.16 878.109C1082.74 874.02 1083.14 869.22 1084.19 864.711C1087.19 851.862 1089.94 838.953 1092.46 826.004C1095.08 812.535 1097.24 798.976 1099.79 785.487C1101.44 776.798 1103.55 768.198 1105.24 759.509C1107.6 747.46 1109.96 735.421 1111.84 723.292C1113.58 712.053 1115.76 700.884 1117.59 689.655C1119.01 680.925 1120.58 672.226 1121.69 663.437C1123.03 652.878 1125.52 642.448 1126.55 631.879C1127.46 622.51 1129.47 613.331 1130.41 603.972C1131.17 596.442 1133.2 589.053 1133.94 581.523C1134.88 571.984 1137.36 562.705 1138.04 553.116C1138.44 547.556 1140.08 542.096 1140.59 536.547C1141.41 527.718 1143.65 519.118 1144.51 510.299C1145.02 505.099 1146.22 499.97 1146.86 494.78C1147.79 487.261 1149.11 479.791 1150.08 472.272C1151.05 464.773 1152.34 457.283 1153.56 449.804C1154.37 444.814 1155.42 439.875 1155.41 434.765C1155.41 430.995 1160.25 425.246 1163.77 424.456C1165.58 424.056 1166.94 425.086 1168.34 425.846C1175.08 429.466 1182.03 432.545 1189.38 434.725C1199.51 437.725 1209.85 439.885 1220.38 439.405C1237.1 438.645 1253.45 435.735 1268.88 428.746C1273.16 426.816 1277.79 425.646 1282.24 424.106C1288.42 421.966 1294.61 419.906 1300.59 417.257C1302.03 416.617 1303.52 415.897 1305.6 416.117C1305.25 419.616 1303.76 422.706 1302.69 425.876C1297.36 441.685 1291.9 457.453 1286.52 473.242C1274.08 509.799 1261.83 546.426 1249.14 582.903C1243.31 599.672 1237.82 616.56 1232 633.339C1224.88 653.887 1217.91 674.486 1210.85 695.054C1210.5 696.084 1209.94 697.044 1210.13 698.194C1199.16 730.261 1188.16 762.309 1177.21 794.386C1166.15 826.814 1155.13 859.251 1144.08 891.678C1142.74 895.618 1141.28 899.528 1139.86 903.447C1138.9 906.107 1137.31 908.327 1134.75 909.577C1121.46 916.066 1107.86 921.436 1092.65 920.696C1086.52 920.396 1080.92 918.566 1075.81 915.236C1072.14 912.847 1072.21 912.317 1072.74 908.067C1073.81 899.358 1077.26 891.318 1079.41 882.909C1079.82 881.309 1080.15 879.739 1080.14 878.099L1080.16 878.109Z" fill="#A0D4EF"></path>
<path d="M127.257 532.257C129.158 537.627 127.907 543.116 127.897 548.556C126.316 543.176 127.437 537.687 127.257 532.257Z" fill="#E0F4FE"></path>
<path d="M353.071 464.573C372.842 464.033 390.321 470.392 405.339 482.851C418.186 493.52 426.771 507.169 430.483 523.688C434.215 540.286 432.694 556.255 426.271 572.044C421.608 583.503 415.165 593.782 406.58 602.431C392.172 616.94 374.833 626.37 354.371 629.519C341.494 631.499 328.757 631.269 316.15 627.529C305.034 624.23 295.079 619.03 286.254 611.401C274.187 600.972 266.223 588.093 262.401 572.754C258.008 555.125 259.909 537.977 266.873 521.188C273.857 504.379 285.243 491.23 299.951 480.991C315.83 469.942 333.54 464.093 353.071 464.553V464.573Z" fill="#B1DAFD"></path>
<path d="M1101.35 722.542C1091.06 716.042 1081.54 710.083 1072.09 704.043C1061.98 697.594 1051.81 691.224 1041.06 685.955C1025.56 678.365 1009.43 672.266 993.063 666.796C992.032 666.456 991.011 666.026 989.951 665.796C987.88 665.346 987.63 664.376 988.04 662.286C990.271 650.867 990.791 639.308 990.681 627.669C990.591 617.6 988.84 607.871 986.149 598.252C985.859 597.202 985.398 596.192 985.228 595.122C984.888 592.922 985.749 592.052 988 592.692C995.314 594.792 1002.7 596.742 1009.85 599.321C1022.64 603.941 1035.46 608.541 1047.9 614.07C1061.19 619.97 1074.37 626.049 1087 633.269C1093.47 636.958 1099.96 640.588 1106.46 644.208C1112.34 647.478 1112.17 647.438 1111.1 654.007C1109.7 662.566 1108.63 671.176 1107.41 679.765C1106.17 688.354 1104.91 696.934 1103.69 705.523C1102.93 710.853 1102.22 716.182 1101.35 722.532V722.542ZM1061.94 644.538C1058.99 643.868 1056.8 642.288 1054.53 640.848C1050.29 638.158 1050.25 638.188 1051.27 633.249C1051.61 631.599 1052.11 629.609 1050.11 629.049C1047.97 628.439 1048.34 630.889 1047.87 631.999C1045.92 636.578 1046.01 636.588 1041.16 634.659C1038.13 633.449 1035.09 632.279 1032.01 631.189C1030.54 630.669 1028.6 629.659 1028.01 632.049C1027.58 633.799 1029.21 634.379 1030.73 634.749C1034.44 635.669 1037.82 637.498 1041.41 638.708C1044.26 639.668 1044.61 641.448 1043.91 643.738C1042.69 647.718 1041.17 651.607 1039.94 655.587C1039.29 657.697 1038.18 657.997 1036.27 657.297C1033.03 656.117 1029.74 655.097 1026.47 654.007C1025.42 653.657 1024.27 653.227 1023.74 654.647C1023.3 655.857 1023.96 656.847 1025.05 657.277C1027.07 658.077 1029.13 658.777 1031.22 659.377C1036.89 661.026 1037.59 662.356 1035.81 666.926C1035.3 668.246 1035.44 669.566 1036.89 670.146C1038.35 670.736 1038.64 669.296 1039.16 668.426C1041.96 663.736 1041.97 663.696 1046.84 666.136C1048.77 667.106 1051.22 667.536 1052.39 669.406C1053.56 671.286 1051.74 673.156 1051.29 675.035C1051.01 676.215 1050.86 677.265 1052.09 677.815C1053.76 678.565 1054.31 677.275 1054.8 676.055C1054.93 675.715 1054.95 675.335 1055.1 675.005C1056.67 671.626 1057.14 671.396 1060.26 673.485C1063.42 675.595 1066.42 677.925 1069.46 680.215C1070.52 681.005 1071.5 682.015 1072.68 680.565C1073.82 679.155 1072.72 678.165 1071.76 677.375C1069.66 675.645 1067.49 674.015 1065.34 672.356C1063.08 670.606 1059.53 669.896 1058.77 667.016C1058.03 664.226 1060.26 661.586 1061.25 658.897C1063.22 653.61 1066.5 652.524 1071.1 655.637C1073.94 657.567 1076.68 659.657 1079.55 661.546C1080.64 662.266 1082.09 662.486 1082.88 661.077C1083.59 659.807 1082.44 659.167 1081.55 658.527C1078.46 656.307 1075.43 654.007 1072.29 651.867C1065.81 647.468 1065.77 647.498 1067.48 640.098C1067.74 638.998 1068.13 637.878 1066.78 637.338C1065.39 636.778 1064.31 637.228 1063.82 638.768C1063.24 640.618 1062.63 642.468 1061.96 644.508L1061.94 644.538Z" fill="#B1DAFD"></path>
<path d="M1226.03 421.386C1217.11 423.806 1208.49 423.526 1199.9 422.016C1189.55 420.206 1179.35 417.846 1169.22 415.006C1162.27 413.057 1156.92 408.987 1151.65 404.567C1141.31 395.908 1129.98 388.679 1118.14 382.369C1095.05 370.05 1071.36 359.031 1046.11 351.691C1040.37 350.022 1034.64 348.332 1028.88 346.702C1024.41 345.432 1024.05 345.272 1024.49 340.782C1025.18 333.773 1026.12 326.783 1027.15 319.814C1027.39 318.194 1027.61 316.594 1027.71 314.964C1028.01 310.145 1028.69 309.235 1033.19 309.925C1040.16 311.005 1047.19 311.705 1054 313.715C1074.06 319.634 1093.58 326.883 1112.06 336.783C1130.78 346.802 1149.81 356.271 1167.17 368.63C1177.65 376.1 1187.78 383.989 1197.44 392.528C1206.18 400.248 1214.13 408.707 1222.48 416.786C1223.76 418.026 1225.34 419.066 1226.03 421.376V421.386Z" fill="#B1DAFD"></path>
<path d="M267.223 818.204C266.323 808.245 265.352 799.085 264.732 789.906C264.512 786.636 263.351 783.537 263.551 780.207C263.661 778.427 264.082 777.247 265.623 776.147C288.165 760.019 312.398 746.93 337.682 735.66C346.307 731.821 354.732 727.511 363.286 723.521C382.777 714.422 403.138 708.003 424.21 703.753C426.511 703.293 428.922 703.693 431.214 702.843C432.644 702.313 433.695 703.003 433.855 704.633C434.615 712.372 435.486 720.092 436.046 727.841C436.326 731.741 435.916 732.041 432.024 733.011C407.36 739.12 384.268 749.199 361.915 760.998C346.827 768.958 332.289 777.897 317.901 787.086C302.303 797.056 286.554 806.785 270.855 816.594C269.965 817.144 268.934 817.454 267.223 818.204Z" fill="#B1DAFD"></path>
<path d="M258.699 732.571C257.878 731.241 257.328 729.551 257.168 727.791C256.348 718.612 255.297 709.472 253.896 700.363C253.156 695.554 253.516 694.794 258.018 692.774C274.928 685.184 290.977 675.885 307.696 667.906C330.868 656.847 354.792 647.907 380.236 643.968C392.993 641.998 405.389 638.828 417.826 635.638C419.247 635.278 420.608 634.869 422.089 634.899C427.201 634.999 428.382 636.168 428.412 641.288C428.452 649.467 428.502 657.637 428.522 665.816C428.522 670.376 428.522 670.526 423.96 671.426C418.827 672.445 413.644 673.335 408.451 673.975C396.174 675.505 384.328 678.835 372.571 682.485C357.153 687.264 341.815 692.264 326.396 697.043C302.543 704.433 280.921 715.982 261.4 731.511C260.71 732.061 260.13 732.841 258.699 732.581V732.571Z" fill="#B1DAFD"></path>
<path d="M291.417 428.505C292.167 426.226 293.728 425.216 295.069 424.136C303.003 417.716 310.167 410.567 316.501 402.567C319.132 399.238 320.903 395.468 322.024 391.418C323.935 384.559 320.032 379.759 312.949 379.459C307.836 379.239 303.673 381.489 299.801 384.059C290.476 390.248 282.772 398.108 277.289 408.007C274.497 413.057 273.037 418.406 273.547 424.176C273.797 427.035 272.867 428.835 270.345 430.415C265.893 433.215 261.45 436.015 256.878 438.615C254.937 439.724 253.736 439.215 253.206 437.215C250.534 427.205 242.31 425.626 233.845 424.306C224.65 422.876 215.395 423.246 206.15 423.146C205.64 423.146 205.139 422.986 204.339 422.846C205.7 419.196 209.152 417.846 211.683 415.846C229.032 402.157 248.103 391.498 268.854 383.749C283.332 378.339 298.14 374.15 313.279 371.32C324.815 369.17 336.462 367.31 348.308 367.45C361.895 367.61 375.513 366.86 388.98 369.66C393.213 370.54 392.933 370.35 393.693 374.7C394.633 380.059 394.483 385.499 395.444 390.868C396.244 395.338 395.804 395.468 391.712 396.398C378.815 399.338 366.068 402.877 353.831 407.967C347.638 410.547 341.594 413.477 335.491 416.256C325.756 420.676 316.18 425.466 305.685 427.975C301.032 429.085 296.47 428.715 291.437 428.485L291.417 428.505Z" fill="#B1DAFD"></path>
<path d="M964.387 537.987C965.277 531.737 966.158 525.488 967.048 519.238C967.969 512.809 968.889 506.389 969.8 499.96C969.95 498.89 969.98 497.79 970.24 496.74C971.21 492.91 971.531 492.73 975.493 493.66C996.164 498.51 1016.38 504.739 1035.64 513.818C1037.93 514.898 1040.33 515.758 1042.6 516.888C1046.92 519.028 1047.19 519.938 1045.24 524.538C1043.19 529.367 1041.06 534.177 1039.1 539.046C1037.13 543.916 1035.08 548.766 1033.52 553.775C1032.42 557.345 1030.08 560.125 1028.5 563.374C1027.27 565.884 1025.24 564.894 1023.35 564.014C1015.79 560.495 1008.19 557.115 1000.46 554.015C989.681 549.696 978.715 545.926 967.639 542.496C964.947 541.666 963.966 540.596 964.397 537.996L964.387 537.987Z" fill="#B1DAFD"></path>
<path d="M1117.25 618.73C1112.11 616.91 1109.14 613.87 1105.78 611.56C1094.43 603.721 1082.65 596.581 1070.9 589.382C1064.71 585.592 1058.43 581.953 1052.12 578.373C1050.06 577.213 1049.38 576.033 1050.02 573.573C1052.88 562.524 1055.51 551.415 1059.33 540.646C1059.93 538.946 1060.62 537.236 1061.54 535.686C1064.35 530.997 1068.45 529.997 1073.11 532.767C1089.81 542.676 1105.95 553.405 1121.56 564.974C1124.08 566.844 1124.83 568.554 1124.26 571.803C1122 584.602 1120.14 597.481 1118.22 610.35C1117.84 612.86 1116.73 615.19 1117.24 618.73H1117.25Z" fill="#B1DAFD"></path>
<path d="M1132.86 516.818C1119.55 510.029 1107.62 502.23 1096.15 493.59C1089.22 488.371 1081.87 483.601 1074.06 479.701C1071.51 478.431 1071.18 477.122 1072.41 474.572C1078.33 462.303 1082.97 449.524 1087.16 436.565C1088.72 431.775 1088.96 431.855 1093.72 432.745C1100.49 434.015 1106.2 437.635 1111.97 440.984C1121.68 446.644 1131.16 452.714 1140.73 458.623C1143.15 460.113 1144.47 461.483 1143.63 465.093C1140.82 477.052 1138.85 489.211 1136.36 501.25C1135.31 506.339 1135.19 511.659 1132.86 516.818Z" fill="#B1DAFD"></path>
<path d="M572.611 427.646C563.156 428.086 553.811 426.066 544.366 426.506C541.834 426.626 540.654 425.486 540.844 422.946C541.444 414.767 539.343 406.717 539.693 398.538C539.873 394.368 538.303 390.349 538.593 386.119C538.883 381.939 538.723 381.829 542.925 381.789C554.191 381.699 565.468 381.989 576.714 381.579C585.188 381.269 593.693 380.449 602.078 379.179C605.469 378.67 608.971 379.029 612.283 377.83C614.094 377.17 615.015 378.15 615.075 379.989C615.205 383.969 615.725 387.929 615.945 391.868C616.466 401.078 617.146 410.247 618.287 419.406C618.827 423.726 618.437 423.996 614.224 424.396C600.377 425.706 586.549 427.456 572.621 427.656L572.611 427.646Z" fill="#B1DAFD"></path>
<path d="M1039.67 736.811C1039.34 737.88 1038.94 739.46 1038.36 740.97C1034.1 751.929 1029.06 762.588 1025.25 773.728C1024.47 776.017 1023.44 777.007 1020.89 775.587C1013.45 771.428 1005.92 767.468 998.436 763.398C988.38 757.949 978.084 753.069 966.978 750.139C960.134 748.33 960.155 748.4 963.136 741.98C967.659 732.241 970.23 721.882 972.832 711.533C973.992 706.913 974.042 706.853 978.385 707.893C995.434 711.943 1011.31 718.942 1026.66 727.231C1030.32 729.211 1033.87 731.411 1037.46 733.521C1038.55 734.161 1039.76 734.721 1039.66 736.821L1039.67 736.811ZM1012.49 736.301C1008.93 736.301 1006.01 739.2 1005.96 742.79C1005.91 746.12 1009 749.05 1012.68 749.18C1015.88 749.29 1020 746.02 1020.03 743.35C1020.07 740.09 1016.02 736.301 1012.48 736.301H1012.49ZM994.984 733.851C994.884 730.681 992.012 727.741 989.23 727.961C986.349 728.191 983.878 731.231 983.988 734.411C984.108 737.75 986.059 739.59 989.501 739.59C993.133 739.59 995.084 737.54 994.974 733.851H994.984Z" fill="#B1DAFD"></path>
<path d="M396.394 405.117C397.645 413.656 398.826 421.686 399.976 429.715C400.106 430.605 400.036 431.525 400.066 432.435C400.116 434.275 399.486 434.895 397.435 434.635C387.99 433.405 378.675 434.965 369.31 436.055C358.874 437.275 348.498 438.734 338.182 440.674C319.242 444.234 300.632 448.884 283.122 457.163C275.258 460.883 267.323 464.522 259.939 469.192C259.349 469.562 258.689 469.952 257.608 469.572C255.657 464.022 256.027 458.073 255.917 452.173C255.887 450.454 256.848 449.594 258.178 448.804C264.732 444.914 271.266 440.994 277.779 437.035C279.31 436.105 280.911 435.985 282.492 436.525C293.388 440.254 303.954 438.185 314.469 434.845C323.664 431.925 332.429 427.925 341.054 423.686C356.272 416.196 372.141 410.627 388.56 406.507C389.26 406.327 389.931 406.007 390.641 405.897C392.412 405.607 394.203 405.397 396.384 405.097L396.394 405.117Z" fill="#B1DAFD"></path>
<path d="M637.857 725.421C638.087 723.461 638.277 721.512 638.588 719.562C639.058 716.572 640.459 714.742 643 713.292C646.772 711.152 648.993 707.733 650.094 703.573C657.048 702.483 663.992 701.353 670.945 700.313C680.22 698.923 689.516 697.564 698.801 696.254C702.733 695.694 706.695 695.294 710.637 694.804C713.999 694.384 714.77 693.414 714.119 690.154C713.309 686.085 712.328 682.045 711.508 677.975C710.857 674.715 711.248 674.195 714.739 674.105C719.462 673.995 724.185 674.085 728.907 674.035C731.259 674.015 732.599 674.895 732.969 677.395C733.87 683.505 735.571 689.424 737.632 695.224C740.384 702.993 736.742 711.982 726.396 713.572C714.079 715.462 701.762 717.252 689.416 718.942C675.108 720.912 660.85 723.161 646.552 725.161C643.69 725.561 640.749 725.351 637.847 725.421H637.857Z" fill="#D7D4CF"></path>
<path d="M542.135 468.998C542.135 462.829 542.185 456.659 542.105 450.5C542.075 448.31 542.866 447.24 545.117 446.87C547.078 446.55 548.999 446.11 551.02 446.11C562.997 446.1 574.983 446.01 586.96 446C592.253 446 592.253 446.04 592.273 451.49C592.303 459.829 592.303 468.178 592.363 476.518C592.383 479.407 592.163 482.287 593.103 485.137C593.784 487.227 593.043 488.547 590.512 488.697C580.416 489.287 570.381 490.706 560.245 490.936C555.933 491.036 551.66 492.116 547.288 491.976C542.105 491.816 542.065 491.926 542.025 486.947C541.975 480.957 542.015 474.978 542.015 468.988H542.135V468.998Z" fill="#B1DAFD"></path>
<path d="M1087.17 825.654C1081.31 822.924 1077.63 818.294 1073.13 814.784C1066.99 810.005 1061 805.025 1054.64 800.546C1052.04 798.716 1050.98 796.526 1051.76 793.586C1055.64 779.127 1058.5 764.428 1061.91 749.92C1063.99 749.51 1065.2 750.74 1066.51 751.63C1074.61 757.129 1082.56 762.829 1090.82 768.068C1094.01 770.098 1094.78 772.528 1094.18 775.798C1093.21 781.127 1092.58 786.497 1091.94 791.876C1090.61 802.965 1088.85 813.995 1087.16 825.644L1087.17 825.654ZM1073.39 774.448C1069.3 774.488 1066.96 776.807 1066.91 780.867C1066.86 784.617 1070.81 788.527 1074.64 788.527C1078.3 788.527 1082.28 784.737 1082.19 781.337C1082.08 777.207 1078.51 774.408 1073.39 774.458V774.448Z" fill="#B1DAFD"></path>
<path d="M946.847 640.908C946.847 640.728 947.017 639.948 946.817 639.278C945.076 633.539 943.795 627.819 945.747 621.81C946.217 620.35 944.636 619.28 943.705 618.16C940.794 614.64 940.254 609.371 942.785 605.621C946.907 599.521 952.13 594.532 958.804 591.262C961.885 589.752 962.206 590.302 963.356 593.332C966.578 601.861 967.739 610.851 968.249 619.74C968.749 628.329 971.191 636.938 968.919 645.678C968.249 648.238 968.839 651.107 968.629 653.817C968.299 658.117 966.668 659.057 962.656 657.547C960.455 656.717 958.123 656.167 956.002 655.157C950.349 652.487 945.947 649.057 946.837 640.898L946.847 640.908Z" fill="#B1DAFD"></path>
<path d="M785.268 590.112C785.949 590.932 786.649 591.742 787.299 592.592C790.971 597.342 795.474 599.292 801.367 596.952C802.788 596.392 804.319 596.482 805.089 598.092C807.2 602.531 811.433 604.731 814.965 607.681C812.994 609.111 810.732 609.661 808.361 609.721C802.938 609.851 797.525 610.381 792.132 610.631C781.296 611.131 770.52 612.281 759.724 613.17C751.65 613.83 743.635 615.24 735.581 616.15C732.889 616.46 730.148 616.29 727.427 616.33C728.047 611.961 729.938 608.091 732.439 604.551C734.57 601.521 735.921 598.292 736.231 594.612C739.193 594.772 741.924 593.052 744.926 593.532C745.877 597.082 748.468 599.102 751.8 599.672C755.902 600.381 762.376 595.902 764.607 591.392C771.481 590.692 778.335 589.682 785.268 590.102V590.112Z" fill="#D7D4CF"></path>
<path d="M937.072 712.873C937.012 705.993 943.545 700.554 950.689 701.533C957.933 702.523 958.334 703.073 955.512 709.803C953.771 713.972 951.73 718.032 949.639 722.042C948.188 724.832 947.227 725.022 944.446 723.372C940.434 720.992 936.902 718.212 937.072 712.873Z" fill="#B1DAFD"></path>
<path d="M312.018 388.879C307.105 403.178 295.689 410.867 285.063 419.736C283.562 416.786 284.793 414.727 285.814 412.707C290.496 403.457 297.51 396.298 306.075 390.619C307.506 389.669 309.036 388.509 312.018 388.879Z" fill="#B1DAFD"></path>
<path d="M661.89 679.515C662.01 678.325 662.141 677.125 662.261 675.925C663.321 674.925 664.342 674.095 666.003 674.125C672.266 674.225 678.53 674.165 684.853 674.595C677.319 676.925 669.715 678.725 661.89 679.525V679.515Z" fill="#D7D4CF"></path>
<path d="M940.654 737.41C940.564 732.191 941.054 731.271 945.056 729.171C944.296 733.371 944.006 733.911 940.654 737.41Z" fill="#B1DAFD"></path>
<path d="M785.268 590.112C778.325 589.692 771.471 590.702 764.607 591.402C758.043 592.112 751.49 592.822 744.926 593.542C741.925 593.062 739.193 594.772 736.231 594.622C728.867 595.402 721.493 596.122 714.139 596.962C709.477 597.491 704.844 598.361 700.172 598.771C689.726 599.701 679.37 601.271 669.004 602.851C658.108 604.511 647.202 606.121 636.276 607.551C634.275 607.811 632.314 609.5 630.113 608.131C637.837 600.841 638.097 597.401 634.025 588.432C636.136 587.932 638.207 586.992 640.249 587.062C646.452 587.272 652.515 585.972 658.669 585.632C668.584 585.092 678.44 583.683 688.335 582.763C693.378 582.293 698.461 581.863 703.483 581.673C710.557 581.403 717.601 580.713 724.615 580.153C741.534 578.783 758.444 577.343 775.203 574.253C786.029 572.253 796.655 569.264 807.731 567.674C808.771 571.064 808.381 574.353 808.021 577.523C807.741 580.023 807.09 582.503 807.14 585.052C807.19 587.782 805.83 589.032 803.128 588.982C801.307 588.952 799.496 589.072 797.675 589.022C793.493 588.922 789.351 589.242 785.248 590.122L785.268 590.112Z" fill="white"></path>
<path d="M1061.94 644.538C1062.6 642.498 1063.22 640.648 1063.8 638.798C1064.28 637.258 1065.37 636.808 1066.76 637.368C1068.11 637.908 1067.72 639.018 1067.46 640.128C1065.75 647.527 1065.79 647.497 1072.27 651.897C1075.41 654.037 1078.45 656.337 1081.53 658.556C1082.42 659.196 1083.57 659.836 1082.86 661.106C1082.07 662.516 1080.63 662.296 1079.53 661.576C1076.66 659.686 1073.92 657.597 1071.08 655.667C1066.47 652.54 1063.19 653.627 1061.23 658.926C1060.23 661.616 1058.01 664.256 1058.75 667.046C1059.51 669.926 1063.06 670.646 1065.32 672.385C1067.47 674.045 1069.64 675.675 1071.74 677.405C1072.7 678.205 1073.8 679.185 1072.66 680.595C1071.48 682.055 1070.5 681.045 1069.44 680.245C1066.41 677.955 1063.4 675.615 1060.24 673.515C1057.12 671.435 1056.64 671.655 1055.08 675.035C1054.93 675.355 1054.91 675.745 1054.78 676.085C1054.29 677.305 1053.74 678.595 1052.07 677.845C1050.84 677.295 1050.99 676.245 1051.27 675.065C1051.72 673.185 1053.53 671.315 1052.37 669.436C1051.2 667.566 1048.75 667.136 1046.82 666.166C1041.95 663.716 1041.95 663.756 1039.14 668.456C1038.62 669.316 1038.33 670.765 1036.87 670.176C1035.43 669.596 1035.28 668.276 1035.79 666.956C1037.57 662.386 1036.87 661.056 1031.2 659.406C1029.12 658.797 1027.05 658.107 1025.03 657.307C1023.94 656.877 1023.28 655.887 1023.72 654.677C1024.24 653.247 1025.4 653.677 1026.45 654.037C1029.72 655.127 1033 656.147 1036.25 657.327C1038.17 658.027 1039.27 657.727 1039.92 655.617C1041.15 651.637 1042.68 647.747 1043.89 643.768C1044.59 641.478 1044.24 639.698 1041.39 638.738C1037.81 637.528 1034.43 635.698 1030.71 634.778C1029.2 634.398 1027.56 633.819 1027.99 632.079C1028.58 629.689 1030.53 630.699 1031.99 631.219C1035.07 632.309 1038.11 633.479 1041.14 634.688C1045.99 636.628 1045.9 636.618 1047.85 632.029C1048.32 630.919 1047.95 628.479 1050.09 629.079C1052.08 629.639 1051.59 631.629 1051.25 633.279C1050.23 638.218 1050.27 638.188 1054.51 640.878C1056.78 642.318 1058.96 643.898 1061.92 644.568L1061.94 644.538ZM1053.33 665.126C1054.78 665.066 1055.18 664.176 1055.49 663.366C1056.2 661.506 1057.04 659.646 1057.36 657.707C1057.87 654.617 1061.41 651.857 1059.43 648.707C1057.72 645.988 1054.06 645.188 1051.35 643.378C1049.33 642.018 1048.01 642.768 1047.28 645.018C1046 648.977 1044.66 652.927 1043.31 656.867C1042.94 657.947 1042.66 659.156 1043.57 659.916C1046.53 662.366 1050.21 663.526 1053.33 665.126Z" fill="white"></path>
<path d="M1012.48 736.3C1016.02 736.3 1020.07 740.09 1020.03 743.35C1019.99 746.019 1015.87 749.289 1012.68 749.179C1009 749.049 1005.91 746.109 1005.96 742.79C1006.01 739.2 1008.93 736.3 1012.49 736.3H1012.48Z" fill="white"></path>
<path d="M994.984 733.851C995.094 737.551 993.143 739.6 989.511 739.59C986.069 739.59 984.108 737.75 983.998 734.411C983.888 731.231 986.349 728.191 989.241 727.961C992.022 727.741 994.894 730.681 994.994 733.851H994.984Z" fill="white"></path>
<path d="M744.916 593.542C751.48 592.832 758.043 592.112 764.597 591.402C762.356 595.912 755.892 600.392 751.79 599.682C748.468 599.112 745.867 597.092 744.916 593.542Z" fill="#B1DAFD"></path>
<path d="M1053.33 665.126C1050.21 663.516 1046.54 662.367 1043.57 659.917C1042.65 659.157 1042.94 657.947 1043.31 656.867C1044.66 652.927 1046 648.978 1047.28 645.018C1048.01 642.768 1049.33 642.028 1051.35 643.378C1054.06 645.188 1057.72 645.998 1059.43 648.708C1061.42 651.857 1057.88 654.607 1057.36 657.707C1057.04 659.647 1056.2 661.507 1055.49 663.366C1055.18 664.176 1054.78 665.066 1053.33 665.126Z" fill="#B1DAFD"></path>
<path d="M629.343 778.837C629.703 778.827 630.143 778.937 630.423 778.777C636.346 775.228 642.31 777.427 648.143 778.857C652.675 779.967 657.338 780.307 661.85 781.837C664.412 782.707 666.913 782.977 668.944 785.087C671.636 787.897 675.478 788.227 679.02 788.537C695.619 789.986 712.248 791.686 728.937 790.746C740.464 790.096 752.01 789.386 763.396 787.137C770.83 785.667 778.305 784.417 785.599 782.307C786.789 781.967 788.13 782.147 789.401 782.117C809.562 781.587 829.413 778.957 848.653 772.798C861.68 768.628 873.857 762.629 884.763 754.259C891.387 749.17 893.408 749.59 898.12 756.489C900.852 760.499 900.732 764.278 898.12 768.078C893.798 774.348 888.655 779.957 883.783 785.787C883.202 786.487 882.472 787.057 881.892 787.747C881.251 788.517 879.98 789.356 881.191 790.416C882.182 791.286 883.182 790.436 884.083 789.786C887.415 787.357 890.446 784.447 894.538 783.237L894.518 783.217C894.598 784.437 894.228 785.937 895.969 786.307C897.2 786.567 898 785.717 898.621 784.777C903.143 777.957 907.145 770.878 909.827 763.099C910.527 761.059 911.498 759.069 912.618 757.219C913.459 755.829 914.71 754.449 916.631 755.169C918.211 755.769 919.412 757.009 919.542 758.809C919.712 760.969 919.842 763.149 919.262 765.298C916.2 776.707 910.407 786.637 903.203 795.906C898.391 802.115 892.687 807.435 887.134 812.905C881.691 818.264 875.568 822.664 868.714 826.214C850.654 835.573 832.264 844.092 812.834 850.252C799.536 854.471 785.979 857.491 772.201 859.691C758.223 861.931 744.216 863.271 730.038 862.871C723.684 862.691 717.481 861.361 711.198 860.841C699.711 859.891 688.765 856.851 678.029 852.991C673.317 851.291 668.794 849.062 664.352 846.532C658.479 843.182 654.026 840.902 647.232 847.522C638.968 855.571 629.973 862.871 622.719 871.98C619.907 875.51 616.386 878.479 613.174 881.699C604.049 890.828 594.654 899.698 585.869 909.147C576.093 919.656 565.758 929.615 555.992 940.094C539.303 958.003 521.924 975.222 504.484 992.38C495.219 1001.49 483.893 1007.02 470.946 1009.01C470.765 1009.04 470.575 1009.01 470.405 1009.05C460.6 1011.29 460.95 1010.42 456.688 1002.29C453.696 996.58 453.246 990.52 453.616 984.321C453.806 981.071 455.767 980.121 458.929 981.191C461.64 982.111 462.791 984.481 464.042 986.601C465.442 988.99 466.733 989.36 469.295 988.21C476.238 985.071 481.691 980.601 486.044 974.142C499.021 954.903 510.897 934.975 523.364 915.416C530.278 904.567 537.342 893.798 545.276 883.669C552.41 874.55 559.864 865.69 567.198 856.731C573.962 848.472 580.706 840.202 587.58 832.043C589.13 830.203 589.531 827.913 589.621 825.984C589.921 819.814 592.722 815.124 596.445 810.435C602.628 802.645 608.271 794.436 614.144 786.397C614.815 786.217 615.675 786.247 616.115 785.827C619.897 782.267 624.21 779.787 629.363 778.857L629.343 778.837ZM877.049 794.126C877.459 793.866 878.71 794.596 878.149 793.306C878.039 793.046 877.279 793.616 877.039 794.116C876.919 794.176 876.769 794.206 876.669 794.296C876.609 794.346 876.619 794.486 876.599 794.576C876.749 794.426 876.899 794.266 877.039 794.116L877.049 794.126Z" fill="#F6F0F0"></path>
<path d="M592.072 771.398C587.89 766.538 585.118 760.789 582.007 755.279C569.26 732.721 559.514 708.893 553.441 683.715C550.819 672.846 549.138 661.726 548.158 650.497C547.538 643.428 547.678 636.369 547.297 629.319C546.657 617.41 549.429 605.921 551.07 594.282C552.03 587.453 553.771 580.713 555.542 574.204C558.353 563.854 560.845 553.175 567.499 544.086C574.352 534.727 580.176 524.638 587.37 515.478C591.552 510.159 596.374 505.479 601.347 500.979C611.833 491.49 622.749 482.511 634.275 474.272C644.351 467.072 654.937 460.753 665.963 455.183C671.486 452.393 677.759 451.723 683.802 450.634C689.135 449.674 694.538 449.084 699.921 448.464C701.892 448.244 704.024 448.014 705.895 448.504C712.568 450.254 719.502 450.164 726.206 451.643C726.916 451.803 727.647 451.883 728.327 452.113C734.19 454.093 735.101 456.083 732.819 461.913C732.289 463.263 731.809 464.622 731.249 465.962C730.288 468.262 728.787 469.812 726.176 470.402C713.579 473.292 702.653 479.681 692.047 486.771C674.948 498.21 662.341 513.718 651.785 531.047C647.923 537.377 644.151 543.766 641.239 550.655C639.638 554.445 636.977 557.815 634.635 561.265C626.841 572.724 622.569 585.353 620.238 599.012C618.797 607.461 618.256 615.94 617.776 624.369C617.406 630.759 617.936 637.418 618.737 643.868C619.777 652.297 621.318 660.667 623.489 668.916C627.522 684.275 633.175 699.043 641.759 712.352C646.512 719.712 646.172 727.081 645.301 734.811C644.851 738.73 643.33 742.52 642.55 746.42C641.889 749.719 638.568 751.009 637.437 753.999C636.036 757.689 632.394 756.689 629.443 757.209C622.039 758.509 614.164 757.979 607.551 762.538C602.478 763.938 596.845 764.328 594.443 770.328C594.213 770.898 592.903 771.038 592.092 771.378L592.072 771.398ZM615.695 753.159C619.507 752.499 623.149 752.939 626.781 753.619C626.941 753.649 627.151 753.589 627.301 753.509C628.522 752.869 630.353 752.669 630.123 750.749C629.883 748.71 628.212 747.99 626.521 748.46C622.799 749.499 619.007 750.459 615.685 753.159H615.695Z" fill="#A8CCEA"></path>
<path d="M592.072 771.398C592.882 771.058 594.193 770.918 594.423 770.348C596.825 764.348 602.468 763.958 607.531 762.559C610.482 765.618 609.482 769.478 609.652 773.098C609.742 775.788 607.921 778.207 608.581 780.977C606.18 782.317 604.639 784.587 602.658 786.387C599.196 789.546 598.446 789.386 595.754 785.337C594.814 783.917 594.383 782.527 594.293 780.867C594.133 777.587 593.193 774.468 592.062 771.398H592.072Z" fill="#D5E5F3"></path>
<path d="M608.581 780.977C607.921 778.217 609.742 775.787 609.652 773.098C617.046 771.998 624.39 770.458 631.934 769.938C632.774 773.738 629.823 775.908 629.343 778.827C624.19 779.757 619.877 782.237 616.095 785.797C615.655 786.217 614.785 786.187 614.124 786.367C612.463 784.377 610.692 782.507 608.591 780.967L608.581 780.977Z" fill="#A8CCEA"></path>
<path d="M894.518 783.217C894.658 783.067 894.798 782.907 894.948 782.757C894.928 782.847 894.928 782.977 894.868 783.027C894.768 783.107 894.628 783.147 894.508 783.197L894.528 783.217H894.518Z" fill="#D5E5F3"></path>
<path d="M877.039 794.116C877.279 793.616 878.029 793.036 878.149 793.306C878.7 794.596 877.459 793.866 877.049 794.126L877.039 794.116Z" fill="white"></path>
<path d="M877.048 794.116C876.898 794.266 876.748 794.426 876.609 794.576C876.629 794.476 876.619 794.346 876.679 794.296C876.778 794.206 876.918 794.176 877.048 794.116Z" fill="white"></path>
<path d="M615.695 753.159C619.017 750.459 622.809 749.499 626.531 748.46C628.222 747.99 629.893 748.709 630.133 750.749C630.363 752.669 628.532 752.869 627.311 753.509C627.161 753.589 626.951 753.649 626.791 753.619C623.159 752.939 619.517 752.499 615.705 753.159H615.695Z" fill="#D5E5F3"></path>
<path d="M796.355 829.243C791.622 828.833 786.949 829.843 782.247 829.843C750.049 829.843 719.292 823.354 690.056 809.685C680.351 805.145 671.376 799.376 662.111 794.086C661.01 792.666 659.939 792.446 658.919 794.176C654.757 797.716 651.095 801.745 647.813 806.095C626.801 833.963 604.889 861.121 582.677 888.038C569.72 903.737 557.213 919.816 543.615 934.975C530.018 950.123 516.32 965.192 502.633 980.251C498.481 984.821 494.338 989.42 489.956 993.77C479.45 1004.2 467.714 1012.49 452.455 1014.28C451.675 1013.78 450.965 1013.96 450.274 1014.48C440.779 1015.15 431.884 1013.54 423.7 1008.31C408.181 998.38 400.557 978.721 406.38 962.363C409.672 953.113 415.805 945.774 423.179 939.424C424.55 938.244 425.931 937.075 427.201 935.795C473.257 889.558 519.302 843.322 565.327 797.066C579.945 782.377 594.493 767.628 609.081 752.899C609.722 752.249 610.312 751.55 611.003 750.97C613.194 749.11 613.314 747.39 611.453 744.98C606.02 737.911 601.337 730.341 597.095 722.492C577.814 686.845 569.49 648.908 573.852 608.511C577.614 573.634 589.661 541.786 611.103 513.889C640.199 476.022 678.24 451.714 724.745 440.775C732.499 438.955 740.414 437.815 748.258 436.365C749.5 436.135 752.5 435.485 753.281 435.485C754.062 435.485 762.899 434.61 764.5 434.5C783.49 433.26 795.924 435.895 814.464 439.915C856.818 449.094 893.158 469.222 923.114 500.61C938.283 516.508 950.509 534.487 959.684 554.475C972.681 582.783 978.995 612.471 977.694 643.678C977.604 645.848 977.674 648.028 977.674 650.208C976.914 651.598 976.794 653.037 977.424 654.507C975.853 662.507 975.243 670.666 973.262 678.615C956.723 744.94 916.2 790.336 853.176 815.994C837.347 822.434 820.838 826.543 803.769 828.183C802.708 828.283 801.667 828.693 800.627 828.953C799.156 828.423 797.735 828.493 796.355 829.243ZM679.55 737.181C688.735 746.74 699.551 753.899 711.658 759.189C719.002 762.399 726.886 764.098 734.25 767.198C753.321 775.248 773.062 775.748 793.163 772.978C813.674 770.148 833.135 763.809 851.905 755.259C872.066 746.08 888.435 732.441 900.352 713.563C906.415 703.963 910.447 693.454 914.74 683.065C918.512 673.926 920.693 664.357 920.833 654.467C921.013 640.878 920.443 627.409 917.781 613.921C915.41 601.882 911.968 590.332 907.135 579.193C899.631 561.915 887.725 547.736 874.297 534.787C853.346 514.559 828.142 503.04 799.476 498.77C798.836 498.16 798.145 498.02 797.385 498.55C791.522 496.86 785.468 497.26 779.495 497.14C740.504 496.31 705.705 507.889 675.698 532.957C647.563 556.455 633.415 586.853 632.734 623.37C632.214 651.208 639.308 677.335 652.405 701.793C659.029 714.162 667.304 725.432 677.529 735.171C677.499 736.551 678.179 737.221 679.55 737.201V737.181Z" fill="#68BD53"></path>
<path d="M837.867 273.148C836.356 273.148 834.816 273.448 833.355 272.788C835.006 271.148 836.526 270.978 837.867 273.148Z" fill="#FAFCF9"></path>
<path d="M840.999 279.258C840.449 277.748 838.818 276.688 839.118 274.808C841.099 275.718 842.87 276.718 840.999 279.258Z" fill="#FAFCF9"></path>
<path d="M977.424 654.507C976.794 653.027 976.914 651.597 977.674 650.208C978.955 651.717 978.985 653.167 977.424 654.507Z" fill="#FAFCF9"></path>
<path d="M796.354 829.244C797.735 828.484 799.166 828.424 800.627 828.954C799.316 830.683 797.865 830.503 796.354 829.244Z" fill="#FAFCF9"></path>
<path d="M887.076 407.82C887.402 406.753 888.146 406.08 889.047 405.542C890.062 407.848 889.39 408.596 887.076 407.82Z" fill="#FAFCF9"></path>
<path d="M856.407 305.465C855.597 306.825 854.617 307.645 853.026 306.545C853.846 305.225 855.167 305.465 856.407 305.465Z" fill="#FAFCF9"></path>
<path d="M830.753 272.928C830.113 273.998 829.573 275.258 827.922 274.458C828.252 272.818 829.403 272.678 830.753 272.928Z" fill="#FAFCF9"></path>
<path d="M842.88 288.677C841.839 287.937 841.639 286.967 842.08 285.817C843.3 286.507 843.22 287.557 842.88 288.677Z" fill="#FAFCF9"></path>
<path d="M778.865 326.164C779.305 326.954 779.115 327.634 778.515 328.244C777.454 327.354 777.794 326.694 778.865 326.164Z" fill="#FAFCF9"></path>
<path d="M847.562 401.108C848.343 400.838 849.083 400.928 849.764 401.388C848.833 402.808 848.133 402.458 847.562 401.108Z" fill="#FAFCF9"></path>
<path d="M450.274 1014.49C450.955 1013.96 451.675 1013.79 452.455 1014.29C451.845 1015.56 451.135 1015.81 450.274 1014.49Z" fill="#FAFCF9"></path>
<path d="M658.919 794.176C659.93 792.446 661 792.666 662.111 794.086C661.05 794.116 659.99 794.146 658.919 794.176Z" fill="#FAFCF9"></path>
<path d="M872.616 386.329C872.016 386.129 871.666 385.779 871.836 385.089C872.096 385.499 872.356 385.909 872.616 386.329Z" fill="#FAFCF9"></path>
<path d="M799.466 498.76C828.142 503.029 853.336 514.549 874.287 534.777C887.705 547.736 899.621 561.905 907.125 579.183C911.968 590.322 915.41 601.872 917.771 613.911C920.423 627.41 921.003 640.868 920.823 654.457C920.693 664.347 918.502 673.926 914.73 683.055C910.437 693.454 906.405 703.953 900.342 713.553C888.435 732.421 872.056 746.06 851.895 755.249C833.135 763.798 813.664 770.138 793.153 772.968C773.062 775.738 753.311 775.238 734.24 767.188C726.886 764.078 718.992 762.389 711.648 759.179C699.541 753.889 688.715 746.72 679.54 737.171C679.41 735.951 678.74 735.271 677.519 735.141C667.304 725.402 659.019 714.133 652.395 701.764C639.298 677.315 632.204 651.188 632.724 623.34C633.405 586.823 647.553 556.425 675.688 532.927C705.695 507.869 740.494 496.29 779.485 497.11C785.459 497.24 791.512 496.83 797.375 498.52C797.965 499.56 798.656 499.75 799.466 498.74V498.76Z" fill="white"></path>
<path d="M677.519 735.151C678.74 735.281 679.42 735.961 679.54 737.181C678.159 737.211 677.489 736.531 677.519 735.151Z" fill="#FAFCF9"></path>
<ellipse cx="783.5" cy="638.5" rx="188.5" ry="192.5" fill="#68BD53"></ellipse>
<ellipse cx="775" cy="630.5" rx="155" ry="154.5" fill="white"></ellipse>
<path d="M735.441 436.955C735.801 436.935 736.171 436.895 736.531 436.895C738.342 436.865 739.913 437.455 740.234 439.374C740.614 441.694 738.943 442.574 737.032 442.994C735.261 443.384 733.46 443.674 731.659 443.924C713.099 446.504 695.439 452.063 678.89 460.743C623.539 489.78 589.401 535.057 577.324 596.302C569.77 634.589 575.083 671.556 592.762 706.513C598.696 718.232 606.1 729.021 614.905 738.82C621.548 746.21 621.648 748.19 614.594 755.159C605.539 764.098 596.204 772.758 586.989 781.517C586.469 782.017 585.879 782.467 585.258 782.827C584.038 783.517 582.797 783.517 581.746 782.497C580.696 781.487 580.556 780.137 581.266 778.987C582.117 777.617 583.177 776.327 584.348 775.207C591.972 767.928 599.706 760.759 607.3 753.439C615.125 745.89 613.204 746.8 607.971 740.61C587.6 716.562 574.923 688.864 570.25 657.807C561.645 600.591 576.944 549.756 613.204 505.149C635.966 477.141 664.682 457.203 698.861 445.324C710.747 441.194 722.944 438.325 735.471 436.955H735.441Z" fill="black"></path>
<path d="M1224.01 444.114C1204.39 442.924 1185.94 439.474 1169.11 429.785C1163.37 426.475 1161.65 427.265 1160.49 433.905C1158.79 443.744 1157.37 453.643 1155.84 463.512C1150.38 498.88 1144.91 534.247 1139.46 569.624C1133.22 610.201 1127 650.787 1120.75 691.364C1120.53 692.784 1120.22 694.224 1119.75 695.574C1119.29 696.884 1118.2 697.634 1116.77 697.484C1115.33 697.334 1114.59 696.314 1114.2 694.994C1113.78 693.544 1114.14 692.124 1114.36 690.684C1117.85 668.066 1121.31 645.438 1124.8 622.81C1129.79 590.492 1134.8 558.175 1139.78 525.857C1144.58 494.8 1149.37 463.732 1154.11 432.665C1154.81 428.115 1156.5 424.306 1160.76 422.036C1163.55 420.556 1166.28 420.336 1169.03 422.096C1190.22 435.685 1213.79 438.534 1238.19 436.885C1246.32 436.335 1254.35 434.385 1262.2 432.015C1263.75 431.545 1265.37 431.145 1266.98 431.075C1268.31 431.015 1269.4 431.815 1269.78 433.225C1270.17 434.665 1269.54 435.815 1268.35 436.445C1266.91 437.195 1265.36 437.784 1263.79 438.204C1253.94 440.784 1244.09 443.344 1233.77 443.314C1230.33 443.314 1226.9 443.854 1224 444.104L1224.01 444.114Z" fill="black"></path>
<path d="M233.795 583.773C234.425 555.635 235.046 527.497 235.316 499.349C235.426 488.12 236.777 476.901 237.687 465.692C238.067 461.043 233.955 452.693 229.903 450.393C228.192 449.423 226.381 449.653 224.58 449.893C203.849 452.693 184.038 449.393 165.027 440.894C159.864 438.584 155.062 435.665 150.599 432.185C149.459 431.295 148.248 430.455 147.648 429.045C147.187 427.965 147.247 426.885 147.968 425.955C148.698 425.025 149.749 424.775 150.91 424.975C152.23 425.205 153.181 426.055 154.191 426.825C167.599 437.084 183.127 441.594 199.586 443.794C208.701 445.014 217.696 444.724 226.691 443.064C230.493 442.364 233.455 443.544 235.746 446.634C236.827 448.094 238.027 449.463 239.148 450.883C243.22 456.063 245.211 461.523 244.171 468.472C242.01 482.851 242.09 497.41 241.749 511.928C241.219 534.077 241.349 556.245 240.429 578.373C239.798 593.492 240.429 608.471 241.729 623.489C241.85 624.919 241.769 626.399 241.519 627.809C241.289 629.159 240.319 630.089 238.898 630.209C237.477 630.329 236.507 629.539 235.896 628.289C235.156 626.769 235.256 625.109 235.086 623.489C233.715 610.28 233.685 597.022 233.795 583.763V583.773Z" fill="black"></path>
<path d="M616.037 636.484C616.367 617.626 619.548 599.317 626.792 581.799C627.413 580.289 628.023 578.759 628.824 577.349C629.774 575.679 631.135 574.339 633.246 575.349C635.077 576.229 635.007 577.939 634.487 579.599C634.106 580.809 633.596 581.978 633.106 583.148C624.081 604.527 621.189 626.905 623.21 649.833C625.242 672.831 632.606 694.139 645.883 713.228C647.124 715.018 648.344 716.828 649.415 718.717C650.205 720.107 650.095 721.587 648.704 722.607C647.294 723.637 645.863 723.187 644.762 722.077C643.492 720.797 642.291 719.407 641.26 717.928C627.273 697.809 619.288 675.501 616.917 651.143C616.437 646.263 615.846 641.404 616.037 636.474V636.484Z" fill="black"></path>
<path d="M403.598 974.831C404.069 964.981 406.58 956.992 412.733 950.453C417.706 945.173 422.709 939.913 427.702 934.644C433.065 928.984 438.418 923.305 443.81 917.675C445.391 916.015 446.862 913.646 449.694 915.316C451.605 916.445 451.185 918.805 448.573 921.865C439.738 932.234 429.603 941.373 420.458 951.443C418.387 953.722 416.315 956.042 414.624 958.602C410.082 965.481 409.322 973.121 410.632 981.08C411.012 983.39 411.773 985.74 409.962 987.83C409.251 988.65 408.561 989.66 407.34 989.53C406.06 989.4 405.7 988.22 405.389 987.2C404.089 982.82 403.909 978.28 403.588 974.841L403.598 974.831Z" fill="black"></path>
<path d="M249.304 943.284C242.31 942.924 234.586 941.924 227.452 938.294C224.03 936.554 222.929 934.994 223.74 933.165C224.58 931.275 226.361 930.985 229.973 932.545C242.81 938.114 255.757 938.354 268.674 933.125C277.419 929.585 284.413 924.065 287.174 914.466C287.425 913.606 287.795 912.746 288.295 912.016C288.945 911.066 289.976 910.596 291.147 910.836C292.557 911.126 293.308 912.106 293.438 913.526C293.628 915.576 292.968 917.476 292.227 919.336C288.405 928.895 281.021 934.775 271.916 938.794C265.002 941.844 257.658 943.024 249.304 943.274V943.284Z" fill="black"></path>
<path d="M1095.6 924.335C1091.04 924.405 1086.51 924.235 1082.11 922.935C1078.58 921.895 1075.38 920.245 1072.59 917.846C1070.77 916.276 1069.37 914.376 1069.03 911.916C1068.85 910.556 1069.24 909.366 1070.54 908.696C1071.85 908.026 1073.15 908.336 1073.96 909.446C1081.41 919.635 1092.09 918.696 1102.63 917.566C1112.67 916.486 1122.03 913.096 1130.83 908.136C1132.85 906.997 1135 905.347 1137.13 907.836C1138.54 909.496 1137.51 911.596 1133.92 913.646C1122.05 920.415 1109.35 924.265 1095.6 924.345V924.335Z" fill="black"></path>
<path d="M1163.69 515.688C1161.8 515.688 1160.46 513.818 1160.99 511.859C1161.34 510.589 1162.24 509.659 1163.09 508.719C1176.34 494.01 1189.59 479.301 1202.86 464.602C1203.83 463.523 1204.84 462.463 1205.94 461.533C1207.28 460.413 1208.84 459.773 1210.31 461.233C1211.73 462.643 1211.24 464.232 1210.28 465.692C1209.78 466.442 1209.18 467.132 1208.58 467.812C1199.37 478.091 1190.14 488.371 1180.91 498.63C1176.53 503.489 1172.11 508.319 1167.7 513.139C1166.6 514.348 1165.5 515.598 1163.68 515.688H1163.69Z" fill="black"></path>
<path d="M1191.22 458.013C1191.13 459.573 1190.45 460.383 1189.68 461.183C1185.3 465.742 1180.95 470.322 1176.57 474.882C1175.95 475.531 1175.3 476.191 1174.55 476.661C1173.39 477.391 1172.12 477.431 1171.04 476.471C1169.97 475.521 1169.84 474.302 1170.32 473.002C1170.44 472.662 1170.57 472.302 1170.8 472.042C1175.52 466.572 1180.33 461.183 1185.6 456.233C1186.69 455.203 1188.2 454.993 1189.65 455.743C1190.72 456.293 1191.08 457.283 1191.22 458.003V458.013Z" fill="black"></path>
<path d="M757.783 735.541C751.33 735.091 745.697 735.721 740.124 734.291C735.131 733.001 732.449 730.231 731.469 725.102C728.457 709.463 726.936 693.844 730.698 678.106C731.379 675.276 732.019 672.426 733.31 669.816C740.994 654.367 751.57 641.498 766.658 632.669C776.483 626.92 787.009 624.27 798.456 624.81C811.473 625.42 824.03 627.64 835.926 633.239C846.582 638.249 855.037 645.698 861.63 655.337C863.782 658.487 865.603 661.867 867.854 664.927C872.356 671.026 873.597 678.156 874.788 685.335C875.628 690.415 872.256 693.494 869.094 696.434C859.559 705.323 848.413 711.873 836.577 717.092C815.335 726.452 793.123 732.511 770 734.961C765.678 735.421 761.295 735.381 757.783 735.541Z" fill="#0D73D9"></path>
<path d="M768.719 542.006C771.321 542.006 773.142 541.926 774.953 542.016C783.808 542.486 791.142 545.876 796.274 553.335C804.339 565.064 808.131 577.813 804.789 591.992C802.928 599.882 798.536 606.231 791.672 610.751C790.151 611.751 788.62 612.731 787.139 613.781C775.853 621.81 763.556 622.33 750.679 618.77C745.136 617.23 741.304 613.351 737.562 609.371C723.875 594.832 723.645 570.604 736.482 555.895C744.996 546.136 756.222 541.246 768.709 542.016L768.719 542.006Z" fill="#0D73D9"></path>
<path d="M350.709 495.96C327.687 495.96 309.187 514.857 309.187 538.39C309.187 555.872 332.113 583.021 343.895 595.818C347.604 599.847 353.815 599.847 357.524 595.818C369.305 583.021 392.232 555.872 392.232 538.39C392.232 514.857 373.732 495.96 350.709 495.96ZM350.709 552.602C341.769 552.602 334.739 545.682 334.739 536.868C334.739 528.061 341.763 521.134 350.709 521.134C359.65 521.134 366.68 528.054 366.68 536.868C366.68 545.682 359.65 552.602 350.709 552.602Z" fill="#E0F4FE"></path>
<path d="M336.089 599.962C338.25 600.112 339.741 601.362 341.112 602.891C343.543 605.581 345.964 608.301 348.496 610.891C351.808 614.271 352.208 614.251 355.52 611.111C356.97 609.741 358.291 608.221 359.792 606.911C362.583 604.471 364.645 604.241 366.526 605.971C368.547 607.841 368.357 610.131 365.725 613.101C364.044 615.001 362.263 616.84 360.382 618.54C358.261 620.46 358.471 622.05 360.392 624.01C362.673 626.34 364.725 628.899 366.846 631.379C367.936 632.649 368.727 634.069 368.517 635.829C368.136 638.989 364.825 640.238 361.823 638.169C359.272 636.409 357.381 633.909 355.369 631.569C352.018 627.679 351.327 627.729 347.785 631.579C346.074 633.449 344.383 635.399 342.412 636.959C340.171 638.739 337.47 638.519 336.009 636.769C334.308 634.729 334.788 632.609 336.299 630.809C338.28 628.459 340.551 626.34 342.642 624.08C345.354 621.15 345.424 620.6 342.893 617.7C340.501 614.97 337.91 612.421 335.439 609.761C334.068 608.291 332.747 606.761 332.307 604.741C331.736 602.122 333.497 599.942 336.089 599.952V599.962Z" fill="#73C3FF"></path>
<path d="M865.959 361.896L865.628 362.161C865.21 362.528 864.692 362.756 864.143 362.816C863.102 362.94 862.046 362.823 861.055 362.474C860.242 362.135 859.463 361.716 858.73 361.225C858.278 360.92 857.924 360.487 857.711 359.98C857.46 359.425 857.151 358.899 856.79 358.411C853.105 353.329 850.677 347.674 850.466 343.27C850.466 334.675 851.918 330.457 856.546 326.636C860.881 323.057 865.249 319.478 870.147 316.676C872.104 315.575 872.808 315.712 873.892 317.777C876.881 323.454 879.244 329.45 880.936 335.655C881.387 337.222 881.524 338.866 881.338 340.488C881.152 342.11 880.646 343.678 879.853 345.098C876.357 351.699 871.865 357.409 865.959 361.896Z" fill="#68BD53"></path>
<path d="M722.308 293.001C723.256 292.993 724.202 293.05 725.142 293.171C729.799 293.784 734.509 293.656 739.187 293.997C750.112 294.796 760.924 296.723 771.448 299.749C778.329 301.725 785.253 303.771 791.305 307.739C802.736 315.234 812.371 324.539 819.332 336.391C825.276 346.353 828.396 357.736 828.357 369.325C828.357 370.518 827.726 374.364 827.33 375.003C825.192 378.498 821.952 381.273 818.348 383.686C817.842 384.024 817.279 384.27 816.685 384.41C807.365 386.557 797.65 386.312 788.45 383.696C775.619 380.191 764.68 373.389 754.965 364.521C746.743 356.975 739.698 348.248 734.065 338.628C728.954 330.004 724.372 321.13 721.833 311.351C720.517 306.296 719.582 301.193 719.582 295.962C719.582 293.496 719.967 293.075 722.308 293.001Z" fill="#68BD53"></path>
<path d="M850.591 398.461C848.227 397.252 846.542 395.44 844.676 393.901C819.518 373.178 794.383 352.434 769.268 331.669C767.851 330.497 766.471 329.266 764.99 328.217C763.385 327.109 761.84 327.311 760.877 328.526C759.915 329.74 760.048 331.323 761.514 332.606C764.353 335.1 767.311 337.454 770.226 339.862L814.876 376.742C825.194 385.266 835.511 393.789 845.825 402.313C846.456 402.845 847.061 403.378 847.703 403.911C849.061 404.976 849.43 406.329 849.056 407.991C848.355 411.07 847.724 414.171 847.061 417.261C846.786 418.35 846.694 419.476 846.788 420.595C846.932 421.826 847.547 422.726 848.842 422.934C849.396 423.059 849.975 423.005 850.496 422.78C851.018 422.555 851.453 422.17 851.74 421.682C852.425 420.617 852.58 419.386 852.81 418.198C855.783 404.138 858.745 390.074 861.693 376.007C864.003 365.036 866.321 354.066 868.646 343.096C868.881 341.998 869.18 340.906 868.961 339.771C868.902 339.206 868.658 338.676 868.267 338.262C867.875 337.848 867.358 337.573 866.795 337.481C866.234 337.38 865.655 337.461 865.143 337.711C864.632 337.961 864.213 338.368 863.95 338.871C863.249 340.032 863.089 341.38 862.816 342.664C860.52 353.432 858.245 364.204 855.992 374.979C854.52 381.964 853.045 388.945 851.569 395.92C851.469 396.837 851.132 397.713 850.591 398.461V398.461Z" fill="#2F8E14"></path>
<path d="M965.776 486.228C965.795 487.603 964.965 488.84 963.702 489.384V489.384C961.331 490.407 958.698 488.581 958.679 485.999C958.525 464.561 951.014 442.948 935.255 426.329C926.564 417.17 916.097 410.781 903.972 407.194C902.394 406.728 900.771 406.416 899.148 406.105C898.626 406.005 898.104 405.905 897.584 405.799C897.513 405.785 897.441 405.77 897.368 405.754C896.546 405.582 895.631 405.39 895.013 406.082C894.229 406.974 894.723 407.842 895.186 408.655C895.266 408.795 895.344 408.933 895.415 409.069C895.974 410.145 896.553 411.211 897.132 412.277C897.853 413.606 898.575 414.935 899.259 416.286C900.174 418.105 900.15 419.95 898.17 421.018C896.123 422.125 894.647 420.887 893.679 419.19C893.24 418.423 892.799 417.657 892.358 416.89C889.9 412.613 887.441 408.333 885.189 403.952C883.553 400.765 884.086 398.463 886.859 396.195C890.94 392.861 895.163 389.704 899.409 386.583C901.13 385.315 903.147 384.721 904.673 386.872C906.022 388.769 904.867 390.401 903.458 391.632C901.923 392.991 900.316 394.268 898.455 395.746C897.55 396.465 896.584 397.233 895.537 398.08C897.037 398.461 898.416 398.79 899.71 399.099C902.257 399.707 904.474 400.236 906.636 400.925C927.981 407.753 944.098 421.255 954.034 441.089C961.671 456.337 965.574 471.403 965.776 486.228Z" fill="black"></path>
<path d="M1023.91 571.26C1024.4 573.428 1022.71 573.999 1021.3 574.619C1016.95 576.525 1012.6 578.419 1008.12 580.087C1003.68 581.615 999.387 583.541 995.297 585.841C991.992 587.678 989.225 590.339 987.268 593.562C985.312 596.785 984.234 600.459 984.141 604.223C983.829 610.179 983.853 616.041 983.781 621.949C983.814 623.177 983.701 624.405 983.446 625.607C982.847 627.989 980.726 628.752 978.773 627.167C977.511 626.018 976.545 624.584 975.956 622.986C973.979 618.554 972.254 614.015 970.073 609.667C968.969 607.538 967.712 605.492 966.31 603.544C962.2 597.587 956.196 595.109 949.414 593.727C943.302 592.536 937.095 591.917 930.948 590.916C929.582 590.69 928.072 590.559 927.353 589.034C926.562 587.271 926.993 586.58 929.749 584.971C931.711 584.293 933.712 583.732 935.741 583.292C941.493 582.386 946.082 579.289 950.325 575.679C951.865 574.485 953.131 572.979 954.039 571.26C961.481 564.016 964.465 555.177 963.722 544.932C963.358 541.387 963.415 537.813 963.89 534.281C964.053 533.062 964.521 531.903 965.251 530.91C965.982 529.917 966.952 529.123 968.072 528.599C970.001 527.622 971.139 527.813 972.793 529.373C973.04 530.906 973.487 532.399 974.123 533.817C974.746 535.449 975.321 537.176 976.915 538.237C977.664 540.25 978.226 542.328 978.593 544.443C979.589 549.642 981.707 554.564 984.8 558.87C985.591 561.253 986.538 563.29 989.054 564.481C992.182 565.958 995.202 567.84 998.641 568.055C1004.55 568.376 1010.44 569.151 1016.38 568.805C1019.16 568.639 1021.73 568.805 1023.57 571.188C1023.77 571.259 1023.85 571.248 1023.91 571.26Z" fill="#F7C702"></path>
<path d="M855.497 557.904C854.411 557.921 853.326 557.85 852.252 557.692C851.277 557.525 850.294 557.276 850.054 556.205C849.951 555.689 849.995 555.155 850.183 554.665C850.37 554.174 850.692 553.747 851.112 553.434C851.971 552.768 852.938 552.255 853.971 551.919C856.729 550.838 859.487 549.702 862.245 548.501C868.68 545.675 871.898 540.678 872.541 533.723C872.854 530.425 872.863 527.091 873.617 523.858C873.792 523.138 873.617 522.085 874.775 522.011C875.274 521.961 875.775 522.081 876.198 522.35C876.621 522.62 876.943 523.024 877.111 523.498C877.743 525.006 878.113 526.612 878.204 528.246C878.466 530.96 879.286 533.589 880.613 535.967C882.847 539.865 886.57 541.121 890.643 541.842C894.063 542.458 897.474 543.107 900.875 543.791C901.666 543.948 902.778 543.855 902.981 544.927C903.037 545.427 902.969 545.933 902.781 546.399C902.593 546.865 902.292 547.277 901.905 547.596C901.134 548.301 900.226 548.838 899.239 549.176C897.25 550.03 895.218 550.783 893.153 551.429C889.053 552.584 887.554 555.78 886.525 559.447C885.495 563.113 886.524 566.716 886.892 570.346C887.131 572.59 887.416 574.871 886.561 577.061C886.102 578.234 885.642 578.298 884.879 577.31C883.845 575.872 883.059 574.271 882.553 572.572C881.808 570.438 881.147 568.277 880.439 566.106C880.181 565.33 879.905 564.564 879.593 563.806C877.156 557.978 873.792 556.047 867.531 556.925C863.56 557.47 859.505 557.581 855.497 557.904Z" fill="#F5C605"></path>
<path d="M865.028 610.508C865.235 608.872 865.588 605.455 868.335 603.182C872.785 599.5 879.849 600.631 883.338 605.419C884.48 606.981 885.281 608.761 885.689 610.646C886.097 612.531 886.104 614.479 885.708 616.367C885.088 619.76 881.782 622.382 877.903 622.923C872.639 623.681 864.457 618.761 865.028 610.508Z" fill="#F5C605"></path>
<path d="M979.208 601.602C986.136 588.655 996.279 579.102 1008.33 570.626C1003.17 568.671 998.332 565.976 993.973 562.629C989.558 559.57 985.923 555.543 983.357 550.865C982.703 549.875 982.307 548.742 982.205 547.565C982.166 547.151 982.276 546.736 982.515 546.393C982.755 546.051 983.108 545.801 983.515 545.688C983.86 545.578 984.232 545.579 984.576 545.691C984.921 545.803 985.22 546.019 985.432 546.31C985.854 546.876 986.197 547.495 986.451 548.151C987.973 551.495 990.242 554.458 993.088 556.818C998.171 561.122 1003.59 564.948 1010.07 567.004C1010.53 567.128 1010.99 567.276 1011.43 567.446C1014.64 568.821 1014.84 570.662 1012.05 572.886C1011.22 573.552 1010.35 574.174 1009.45 574.751C1001.35 579.951 994.798 586.706 988.659 594.01C986.191 597.189 984.13 600.654 982.52 604.328C981.768 605.882 981.234 607.914 979.098 607.998C976.963 608.081 976.599 605.774 975.895 604.244C973.893 599.856 972.498 595.218 969.538 591.261C964.684 584.697 958.473 580.358 949.955 579.76C947.813 579.604 945.69 579.26 943.61 578.732C940.674 577.991 940.213 576.425 942.239 574.153C944.532 571.595 946.934 569.132 949.349 566.693C954.912 561.166 959.261 554.57 962.125 547.314C963.839 542.664 964.813 537.78 965.012 532.837C965.23 529.25 965.437 525.556 965.667 521.922C965.675 521.216 965.744 520.512 965.874 519.818C966.141 518.682 966.832 517.845 968.13 518.024C968.371 518.055 968.602 518.133 968.811 518.254C969.02 518.375 969.202 518.536 969.346 518.728C969.49 518.92 969.593 519.139 969.649 519.372C969.705 519.604 969.712 519.845 969.671 520.081C968.907 530.362 969.477 540.811 965.097 550.59C962.009 557.491 957.709 563.8 952.394 569.228C950.374 571.071 948.553 573.114 946.959 575.325C951.969 576.138 956.871 576.365 961.215 578.827C965.596 581.249 969.421 584.538 972.45 588.487C975.398 592.373 977.036 596.868 979.208 601.602Z" fill="#100E0E" stroke="#100E0E" stroke-miterlimit="10"></path>
<path d="M892.99 618.042C893.088 620.326 892.491 622.587 891.277 624.526C890.422 626.018 889.152 627.23 887.621 628.017C886.089 628.803 884.362 629.128 882.649 628.954C881.003 628.842 879.423 628.268 878.089 627.3C876.755 626.332 875.721 625.008 875.106 623.48C874.391 622.003 874.013 620.386 874 618.746C873.988 617.105 874.34 615.483 875.032 613.995C875.754 612.184 877.016 610.637 878.647 609.566C880.279 608.494 882.201 607.949 884.153 608.004C886.218 608.225 888.158 609.102 889.687 610.506C891.216 611.91 892.253 613.767 892.645 615.803C892.879 616.627 892.916 617.476 892.99 618.042ZM883.327 625.054C884.195 625.085 885.053 624.858 885.792 624.402C889.761 622.213 890.167 615.668 886.507 612.998C885.582 612.306 884.436 611.976 883.284 612.072C882.132 612.167 881.056 612.68 880.258 613.515C879.039 614.78 878.311 616.436 878.205 618.188C878.099 619.94 878.621 621.672 879.679 623.074C880.113 623.641 880.663 624.111 881.291 624.452C881.92 624.794 882.614 624.999 883.327 625.054V625.054Z" fill="#0F0D0D" stroke="#100E0E" stroke-miterlimit="10"></path>
</svg>
