<svg width="167" height="152" xmlns="http://www.w3.org/2000/svg">
<rect width="167" height="152" fill="white"></rect>
<path d="M57.14 17.0312C65.7181 17.4531 73.0306 20.125 78.2337 27.1562C78.6556 27.7187 79.0775 28.2812 79.2181 29.125C79.3587 29.9687 79.2181 30.5312 78.6556 31.0937C77.9525 31.6562 77.39 31.2344 76.8275 30.8125C74.8587 29.5469 72.89 28.5625 70.9212 27.1562C68.5306 25.3281 65.7181 24.625 62.6244 25.4687C61.64 25.75 61.4994 26.0312 61.9212 27.0156C63.0462 29.4062 64.0306 31.9375 65.1556 34.3281C65.9994 36.2969 65.8587 37.1406 64.0306 38.4062C63.3275 38.8281 62.2025 38.9687 62.3431 39.9531C62.4837 41.0781 63.1869 42.0625 63.89 42.9062C64.4525 43.6094 65.2962 43.1875 65.8587 42.7656C67.265 41.9219 68.1087 42.2031 69.0931 43.6094C75.9837 53.0312 83.015 62.4531 89.9056 71.875C90.6087 72.7187 91.0306 72.8594 91.7337 72.0156C101.156 61.0469 110.718 50.0781 119.999 38.8281C121.968 36.4375 123.937 35.0312 126.749 34.3281C129.14 33.7656 131.531 32.9219 134.062 32.2187C136.734 31.5156 137.999 32.6406 137.577 35.4531C137.156 39.1094 136.593 42.7656 136.452 46.5625C136.312 48.8125 135.468 50.3594 134.062 52.0469C123.796 63.4375 113.531 74.9687 103.265 86.5C102.421 87.4844 102.562 87.9062 103.265 88.8906C108.327 95.2187 113.812 101.266 117.468 108.578C119.999 113.641 120.421 118.984 119.156 124.328C117.327 131.781 110.577 135.437 102.702 133.328C96.9369 131.781 92.4369 128.406 88.7806 123.766C86.5306 121.094 84.5619 118.141 83.2962 114.906C82.7337 113.5 82.3119 113.641 81.4681 114.766C75.5619 122.078 69.515 129.391 63.4681 136.703C62.3431 138.109 61.0775 138.812 59.39 139.094C51.7962 140.219 45.4681 134.312 46.4525 126.719C46.5931 125.453 47.1556 124.328 48.14 123.203C56.2962 113.641 64.4525 104.078 72.6087 94.6562C73.5931 93.5312 73.5931 92.6875 73.0306 91.4219C67.265 78.4844 61.64 65.5469 55.8744 52.4687C55.4525 51.4844 55.3119 50.6406 56.2962 49.9375C57.2806 49.2344 57.2806 48.3906 56.5775 47.5469C56.4369 47.4062 56.2962 47.125 56.1556 46.9844C54.4681 44.4531 54.4681 44.4531 52.0775 46C50.39 47.125 48.7025 47.9687 47.1556 49.2344C46.1712 50.0781 45.1869 49.6562 44.2025 49.2344C41.9525 48.25 39.5619 48.25 37.4525 49.5156C36.89 49.7969 36.1869 50.2187 36.3275 50.7812C36.4681 52.3281 35.3431 52.8906 34.3587 53.4531C32.8119 54.4375 31.1244 55.5625 29.5775 56.5469C27.1869 58.0937 24.9369 57.8125 23.1087 55.8437C21.14 53.7344 19.8744 51.3437 19.4525 48.3906C19.1712 46.4219 19.7337 44.875 21.2806 43.8906C23.39 42.3437 25.7806 41.2187 28.3119 40.5156C28.8744 40.2344 29.5775 40.0937 30.2806 40.7969C30.9837 41.6406 31.8275 41.3594 32.5306 40.7969C34.3587 39.5312 35.0619 37.4219 34.2181 34.8906C33.7962 33.7656 33.7962 32.6406 34.3587 31.5156C37.7337 22.7969 44.6244 19 53.3431 17.4531C54.6087 17.1719 56.015 17.1719 57.14 17.0312Z" fill="#68BD53"></path>
<path d="M124.78 43.6094C124.78 44.1719 124.359 44.5938 124.077 44.875C104.39 68.0781 84.7023 91.2813 65.0148 114.484C64.7335 114.766 64.4523 115.188 64.0304 115.469C63.6085 115.75 63.1866 115.75 62.7648 115.469C62.3429 115.188 62.3429 114.625 62.4835 114.203C62.7648 113.781 63.046 113.359 63.3273 112.937C82.8741 89.875 102.562 66.6719 122.109 43.6094C122.53 43.0469 122.952 42.3438 123.937 42.625C124.499 42.7656 124.78 43.0469 124.78 43.6094Z" fill="black"></path>
<path d="M130.266 47.6875C130.266 48.3907 129.703 48.8125 129.281 49.2344C111.844 70.0469 94.2655 90.7188 76.5468 111.531C74.578 113.781 72.6093 116.172 70.6405 118.422C69.9374 119.125 69.3749 120.672 68.1093 119.547C66.9843 118.563 68.2499 117.719 68.8124 117.016C78.5155 105.625 88.2186 94.375 97.7811 82.9844C107.625 71.3125 117.609 59.6407 127.453 47.9688C127.734 47.5469 128.156 47.125 128.578 46.8438C129.422 46.4219 130.266 46.8438 130.266 47.6875Z" fill="black"></path>
<path d="M61.7806 25.6094C63.0462 28.4219 64.0306 31.0938 65.1556 33.625C65.4369 34.4688 66.14 35.4531 64.8744 35.875C63.7494 36.2969 63.4681 35.3125 63.1869 34.4688C62.0619 31.7969 60.9369 29.125 59.8119 26.4531C59.1087 24.625 59.5306 23.7812 61.4994 23.3594C64.5931 22.7969 67.5462 23.3594 70.3587 24.4844C73.1712 25.4687 75.5619 27.1562 77.9525 28.8437C78.6556 29.4062 79.4994 29.9687 78.7962 30.9531C78.0931 31.7969 77.39 31.2344 76.6869 30.8125C74.7181 29.4062 72.6087 28 70.3587 27.0156C67.6869 25.8906 65.015 25.4687 61.7806 25.6094Z" fill="black"></path>
<path d="M101.718 90.0156C101.718 90.7188 101.296 91.1406 101.015 91.5625C95.2489 98.5938 89.4833 105.484 83.7177 112.516C83.5771 112.797 83.2958 112.938 83.1552 113.219C82.5927 113.781 82.0302 113.922 81.4677 113.359C80.9052 112.937 81.0458 112.375 81.4677 111.812C81.6083 111.531 81.8896 111.109 82.1708 110.828C87.9364 103.937 93.5614 97.0469 99.1864 90.1563C99.4677 89.875 99.7489 89.4531 100.171 89.3125C101.155 88.8906 101.718 89.1719 101.718 90.0156Z" fill="black"></path>
<path d="M42.9377 34.6093C43.0783 38.4062 40.8283 42.0625 37.4533 43.4687C37.0315 43.6093 36.7502 43.75 36.3283 43.75C35.7658 43.8906 35.2033 43.75 34.9221 43.0468C34.6408 42.3437 35.0627 41.7812 35.7658 41.6406C37.0315 41.2187 38.1565 40.5156 39.0002 39.5312C40.4065 37.8437 41.1096 36.0156 40.5471 33.9062C40.2658 32.7812 40.5471 31.7968 41.6721 31.2343C45.8908 28.8437 49.969 26.3125 54.0471 23.7812C54.7502 23.3593 55.594 22.7968 56.2971 23.7812C56.8596 24.7656 55.8752 25.3281 55.1721 25.75C51.5158 28 47.719 29.9687 44.2033 32.3593C43.219 32.9218 42.3752 33.4843 42.9377 34.6093Z" fill="black"></path>
<path d="M64.3122 132.484C63.3278 132.344 62.4841 131.922 61.781 131.5C58.406 129.531 55.4528 127.141 53.0622 124.047C52.4997 123.344 52.0778 122.641 51.9372 121.797C51.7966 121.234 52.0778 120.672 52.6403 120.391C53.3435 120.109 53.7653 120.531 54.0466 121.094C56.4372 125.453 60.2341 128.125 64.4528 130.234C65.156 130.516 65.7185 130.797 65.5778 131.641C65.4372 132.344 64.8747 132.484 64.3122 132.484Z" fill="black"></path>
<path d="M66.9844 129.25C66.9844 129.25 66.7031 129.25 66.5625 129.25C61.2187 127.563 57.2812 124.328 54.75 119.406C54.4687 118.703 54.3281 117.859 55.1719 117.438C56.1562 117.016 56.4375 117.719 56.8594 118.422C59.25 122.641 62.625 125.594 67.4062 127C68.1094 127.141 68.8125 127.563 68.6719 128.406C68.3906 129.109 67.6875 129.25 66.9844 129.25Z" fill="black"></path>
<path d="M138.702 31.9375C138.421 33.625 138.28 35.1719 137.999 36.7187C137.858 37.4219 137.296 37.5625 136.733 37.5625C135.187 37.5625 132.515 35.5937 132.093 34.0469C131.812 33.0625 132.515 32.5 133.218 32.2187C134.765 31.6562 136.312 31.2344 137.858 30.8125C138.983 30.5312 138.562 31.375 138.702 31.9375Z" fill="black"></path>
<path d="M28.5931 55.1406C28.5931 55.4219 28.4525 55.8437 28.3119 56.125C28.1712 56.6875 27.7494 57.1094 27.0462 57.1094C26.3431 56.9687 26.0619 56.5469 26.0619 55.8437C26.2025 52.1875 24.0931 49.7969 21.5619 47.5469C21.2806 47.4062 21.14 47.2656 20.8587 46.9844C20.5775 46.5625 20.015 46.1406 20.4369 45.4375C20.8587 44.7344 21.5619 44.875 22.265 45.1562C24.2337 46.2812 25.64 48.1094 26.9056 50.0781C27.89 51.625 28.4525 53.1719 28.5931 55.1406Z" fill="black"></path>
<path d="M35.3436 48.9531C35.3436 49.6562 35.203 50.2187 34.4998 50.3594C33.9373 50.5 33.5155 50.2187 33.2342 49.6562C32.5311 47.4062 31.6873 45.1562 29.9998 43.3281C29.578 42.9062 29.7186 42.3437 30.1405 41.9219C30.703 41.5 31.4061 41.6406 31.828 42.0625C33.7967 44.0312 34.7811 46.4219 35.3436 48.9531Z" fill="black"></path>
<path d="M56.8583 47.5469C56.2958 47.5469 56.0146 47.4062 55.7333 46.8437C55.5927 46.2812 55.7333 45.7187 56.2958 45.5781C58.4052 44.5937 60.374 43.4687 61.9208 41.7812C62.2021 41.5 62.7646 41.5 63.1865 41.7812C63.6083 42.2031 63.6083 42.625 63.4677 43.1875C62.9052 44.4531 58.4052 47.5469 56.8583 47.5469Z" fill="black"></path>
</svg>
